<?xml version="1.0" encoding="UTF-8"?>
<svg width="668px" height="801px" viewBox="0 0 668 801" version="1.1" xmlns="http://www.w3.org/2000/svg" xmlns:xlink="http://www.w3.org/1999/xlink">
    <!-- Generator: Sketch 42 (36781) - http://www.bohemiancoding.com/sketch -->
    <title>Kik</title>
    <desc>Created with Sketch.</desc>
    <defs></defs>
    <g id="LANDINGS-DESKTOP-HD" stroke="none" stroke-width="1" fill="none" fill-rule="evenodd">

                    <path d="M6.86731155,722.685973 L6.86731155,86.5774918 C6.86731155,41.3068773 39.1247409,4.64062486 78.982067,4.64062486 C118.803856,4.64062486 151.079035,41.3068773 151.079035,86.5774918 L151.079035,444.529048 L331.334802,250.460101 C352.205687,227.81147 369.281055,213.793849 394.88076,213.793849 C433.778107,213.793849 458.444507,249.37568 458.444507,287.11747 C458.444507,315.152712 445.173539,336.725806 425.253749,358.272248 L311.415034,469.328774 L447.093518,677.406478 C459.43116,696.819615 465.119981,711.912773 465.119981,730.232562 C465.119981,774.43652 433.795876,804.622835 397.742949,804.622835 C369.289939,804.622835 352.214571,793.840751 335.130318,766.88993 L208.945056,569.603195 L151.079035,628.909257 L151.079035,722.694878 C151.079035,767.992141 118.803856,804.640625 78.982067,804.640625 C39.1247409,804.632204 6.86731155,767.983257 6.86731155,722.685973 Z M586.878612,625.887068 C634.735854,625.887068 673.526548,586.874121 673.526548,538.75911 C673.526548,490.644079 634.735854,451.62229 586.878612,451.62229 C539.012486,451.62229 500.221812,490.644079 500.221812,538.75911 C500.221812,586.874121 539.012486,625.887068 586.878612,625.887068 Z" id="Kik"></path>

    </g>
</svg>
