<?xml version="1.0" encoding="UTF-8"?>
<svg width="26px" height="24px" viewBox="0 0 26 24" version="1.1" xmlns="http://www.w3.org/2000/svg" xmlns:xlink="http://www.w3.org/1999/xlink">
    <!-- Generator: Sketch 42 (36781) - http://www.bohemiancoding.com/sketch -->
    <title>Shape</title>
    <desc>Created with Sketch.</desc>
    <defs></defs>
    <g id="LANDINGS-DESKTOP-HD" stroke="none" stroke-width="1" fill="none" fill-rule="evenodd">
        <g id="Landing-HV-V3-OBJETS" transform="translate(-290.000000, -7013.000000)" fill-rule="nonzero" fill="#FFFFFF">
            <g id="1488907330_line" transform="translate(285.000000, 7007.000000)">
                <g id="Layer_x0020_1">
                    <g id="_521252008">
                        <path d="M18,6.12 C24.84,6.12 30.6,10.44 30.6,16.2 C30.6,18 29.88,20.16 28.8,21.6 C28.8,21.6 28.44,21.6 28.44,21.96 L28.44,21.96 C28.08,22.32 27.72,22.68 27,23.04 C23.4,26.28 17.64,30.24 16.92,29.88 C16.2,29.16 18,26.64 16.2,26.28 L15.84,26.28 L15.84,26.28 L15.84,26.28 C9.72,25.2 5.04,21.24 5.04,16.2 C5.04,10.44 10.8,6.12 18,6.12 Z M10.44,19.44 L10.44,19.44 L10.44,19.44 L12.96,19.44 C13.32,19.44 13.68,19.08 13.68,18.72 L13.68,18.72 C13.68,18.36 13.32,18 12.96,18 L11.16,18 L11.16,13.68 C11.16,13.32 10.8,13.32 10.44,13.32 L10.44,13.32 C10.08,13.32 9.72,13.32 9.72,13.68 L9.72,18.72 C9.72,19.08 10.08,19.44 10.44,19.44 Z M26.28,16.2 L26.28,16.2 L26.28,16.2 C26.28,15.84 26.28,15.48 25.92,15.48 L23.76,15.48 L23.76,14.76 L25.92,14.76 C26.28,14.76 26.28,14.4 26.28,14.04 L26.28,14.04 C26.28,13.68 26.28,13.32 25.92,13.32 L23.4,13.32 L23.4,13.32 L23.04,13.32 C22.68,13.32 22.68,13.68 22.68,14.04 L22.68,18.72 C22.68,19.08 22.68,19.44 23.04,19.44 L23.4,19.44 L23.4,19.44 L25.92,19.44 C26.28,19.44 26.28,19.08 26.28,18.72 L26.28,18.72 C26.28,18.36 26.28,18 25.92,18 L23.76,18 L23.76,16.92 L25.92,16.92 C26.28,16.92 26.28,16.56 26.28,16.2 Z M21.6,19.08 L21.6,19.08 L21.6,19.08 C21.6,19.08 21.6,19.08 21.6,18.72 L21.6,13.68 C21.6,13.32 21.24,13.32 20.88,13.32 L20.88,13.32 C20.52,13.32 20.16,13.32 20.16,13.68 L20.16,16.92 L18,13.68 C17.64,13.32 17.64,13.32 17.28,13.32 L17.28,13.32 C16.92,13.32 16.56,13.32 16.56,13.68 L16.56,18.72 C16.56,19.08 16.92,19.44 17.28,19.44 L17.28,19.44 C17.64,19.44 18,19.08 18,18.72 L18,15.84 L20.52,19.08 L20.52,19.08 L20.52,19.08 C20.52,19.44 20.52,19.44 20.88,19.44 L20.88,19.44 L20.88,19.44 L21.24,19.44 C21.24,19.44 21.6,19.44 21.6,19.08 Z M15.12,19.44 L15.12,19.44 L15.12,19.44 C15.48,19.44 15.84,19.08 15.84,18.72 L15.84,13.68 C15.84,13.32 15.48,13.32 15.12,13.32 L15.12,13.32 C14.76,13.32 14.4,13.32 14.4,13.68 L14.4,18.72 C14.4,19.08 14.76,19.44 15.12,19.44 Z" id="Shape"></path>
                    </g>
                </g>
            </g>
        </g>
    </g>
</svg>