<?xml version="1.0" encoding="UTF-8"?>
<svg width="25px" height="23px" viewBox="0 0 25 23" version="1.1" xmlns="http://www.w3.org/2000/svg" xmlns:xlink="http://www.w3.org/1999/xlink">
    <!-- Generator: Sketch 42 (36781) - http://www.bohemiancoding.com/sketch -->
    <title>icon</title>
    <desc>Created with Sketch.</desc>
    <defs></defs>
    <g id="LANDINGS-DESKTOP-HD" stroke="none" stroke-width="1" fill="none" fill-rule="evenodd">
        <g id="Landing-HV-V3-OBJETS" transform="translate(-332.000000, -7013.000000)" fill-rule="nonzero" fill="#FFFFFF">
            <g id="1488907413_imessage-square-social-media" transform="translate(326.000000, 7007.000000)">
                <g id="Group">
                    <g id="soical">
                        <g id="social">
                            <g id="icon" transform="translate(5.800000, 6.600000)">
                                <path d="M12.4423077,8.8817842e-14 C5.68430293,8.8817842e-14 0.205769409,4.37459546 0.205769409,9.77097637 C0.205769409,12.5129509 1.62209621,14.9896041 3.90039976,16.7640469 C4.54789785,20.3088875 1.41884236,20.9639819 1.41884236,20.9639819 C1.41884236,20.9639819 1.02809838,21.4639291 1.99898691,21.6485833 C5.90666386,22.3607876 9.06652963,19.2257085 9.06652963,19.2257085 L9.07011255,19.1628876 C10.1417918,19.4077453 11.2722259,19.5417147 12.4423077,19.5417147 C19.2005513,19.5417147 24.678846,15.16712 24.678846,9.77073834 C24.678846,4.37435743 19.2005513,8.8817842e-14 12.4423077,8.8817842e-14 L12.4423077,8.8817842e-14 Z" id="imessage"></path>
                            </g>
                        </g>
                    </g>
                </g>
            </g>
        </g>
    </g>
</svg>