<?xml version="1.0" encoding="UTF-8"?>
<svg width="720px" height="800px" viewBox="0 0 720 800" version="1.1" xmlns="http://www.w3.org/2000/svg" xmlns:xlink="http://www.w3.org/1999/xlink">
    <!-- Generator: Sketch 42 (36781) - http://www.bohemiancoding.com/sketch -->
    <title>calendar</title>
    <desc>Created with Sketch.</desc>
    <defs></defs>
    <g id="FORMULAIRES-SMARTPHONE-720-LARGER" stroke="none" stroke-width="1" fill="none" fill-rule="evenodd">
        <g id="FORM-:-NUMÉRIQUE-détail-Copy" fill="#000000" fill-rule="nonzero">
            <g id="calendar">
                <path d="M733.333333,800 L66.6666667,800 C29.8476833,800 0,770.152317 0,733.333333 L0,133.333333 C0,96.51435 29.8476833,66.6666667 66.6666667,66.6666667 L133.333333,66.6666667 L133.333333,133.333333 L66.6666667,133.333333 L66.6666667,733.333333 L733.333333,733.333333 L733.333333,133.333333 L666.666667,133.333333 L666.666667,66.6666667 L733.333333,66.6666667 C770.152317,66.6666667 800,96.51435 800,133.333333 L800,733.333333 C800,770.152317 770.152317,800 733.333333,800 Z M566.666667,566.666667 L633.333333,566.666667 C651.742825,566.666667 666.666667,581.590508 666.666667,600 C666.666667,618.409492 651.742825,633.333333 633.333333,633.333333 L566.666667,633.333333 C548.257175,633.333333 533.333333,618.409492 533.333333,600 C533.333333,581.590508 548.257175,566.666667 566.666667,566.666667 Z M566.666667,433.333333 L633.333333,433.333333 C651.742825,433.333333 666.666667,448.257175 666.666667,466.666667 C666.666667,485.076158 651.742825,500 633.333333,500 L566.666667,500 C548.257175,500 533.333333,485.076158 533.333333,466.666667 C533.333333,448.257175 548.257175,433.333333 566.666667,433.333333 Z M633.333333,366.666667 L566.666667,366.666667 C548.257175,366.666667 533.333333,351.742825 533.333333,333.333333 C533.333333,314.923842 548.257175,300 566.666667,300 L633.333333,300 C651.742825,300 666.666667,314.923842 666.666667,333.333333 C666.666667,351.742825 651.742825,366.666667 633.333333,366.666667 Z M600,200 C581.590508,200 566.666667,185.076158 566.666667,166.666667 L566.666667,33.3333333 C566.666667,14.9238417 581.590508,0 600,0 C618.409492,0 633.333333,14.9238417 633.333333,33.3333333 L633.333333,166.666667 C633.333333,185.076158 618.409492,200 600,200 Z M466.666667,66.6666667 L533.333333,66.6666667 L533.333333,133.333333 L466.666667,133.333333 L466.666667,66.6666667 Z M366.666667,566.666667 L433.333333,566.666667 C451.742825,566.666667 466.666667,581.590508 466.666667,600 C466.666667,618.409492 451.742825,633.333333 433.333333,633.333333 L366.666667,633.333333 C348.257175,633.333333 333.333333,618.409492 333.333333,600 C333.333333,581.590508 348.257175,566.666667 366.666667,566.666667 Z M366.666667,433.333333 L433.333333,433.333333 C451.742825,433.333333 466.666667,448.257175 466.666667,466.666667 C466.666667,485.076158 451.742825,500 433.333333,500 L366.666667,500 C348.257175,500 333.333333,485.076158 333.333333,466.666667 C333.333333,448.257175 348.257175,433.333333 366.666667,433.333333 Z M433.333333,366.666667 L366.666667,366.666667 C348.257175,366.666667 333.333333,351.742825 333.333333,333.333333 C333.333333,314.923842 348.257175,300 366.666667,300 L433.333333,300 C451.742825,300 466.666667,314.923842 466.666667,333.333333 C466.666667,351.742825 451.742825,366.666667 433.333333,366.666667 Z M400,200 C381.590508,200 366.666667,185.076158 366.666667,166.666667 L366.666667,33.3333333 C366.666667,14.9238417 381.590508,0 400,0 C418.409492,0 433.333333,14.9238417 433.333333,33.3333333 L433.333333,166.666667 C433.333333,185.076158 418.409492,200 400,200 Z M266.666667,66.6666667 L333.333333,66.6666667 L333.333333,133.333333 L266.666667,133.333333 L266.666667,66.6666667 Z M166.666667,566.666667 L233.333333,566.666667 C251.742825,566.666667 266.666667,581.590508 266.666667,600 C266.666667,618.409492 251.742825,633.333333 233.333333,633.333333 L166.666667,633.333333 C148.257175,633.333333 133.333333,618.409492 133.333333,600 C133.333333,581.590508 148.257175,566.666667 166.666667,566.666667 Z M166.666667,433.333333 L233.333333,433.333333 C251.742825,433.333333 266.666667,448.257175 266.666667,466.666667 C266.666667,485.076158 251.742825,500 233.333333,500 L166.666667,500 C148.257175,500 133.333333,485.076158 133.333333,466.666667 C133.333333,448.257175 148.257175,433.333333 166.666667,433.333333 Z M233.333333,366.666667 L166.666667,366.666667 C148.257175,366.666667 133.333333,351.742825 133.333333,333.333333 C133.333333,314.923842 148.257175,300 166.666667,300 L233.333333,300 C251.742825,300 266.666667,314.923842 266.666667,333.333333 C266.666667,351.742825 251.742825,366.666667 233.333333,366.666667 Z M200,200 C181.590508,200 166.666667,185.076158 166.666667,166.666667 L166.666667,33.3333333 C166.666667,14.9238417 181.590508,0 200,0 C218.409492,0 233.333333,14.9238417 233.333333,33.3333333 L233.333333,166.666667 C233.333333,185.076158 218.409492,200 200,200 Z"></path>
            </g>
        </g>
    </g>
</svg>