<?xml version="1.0" encoding="utf-8"?>
<!-- Generator: Adobe Illustrator 18.0.0, SVG Export Plug-In . SVG Version: 6.00 Build 0)  -->
<!DOCTYPE svg PUBLIC "-//W3C//DTD SVG 1.1//EN" "http://www.w3.org/Graphics/SVG/1.1/DTD/svg11.dtd">
<svg version="1.1" id="Capa_1" xmlns="http://www.w3.org/2000/svg" xmlns:xlink="http://www.w3.org/1999/xlink" x="0px" y="0px"
	 viewBox="-94 -188 800 800" enable-background="new -94 -188 800 800" xml:space="preserve">
<g>
	<g id="Shape_17">
		<g>
			<path d="M706,21.7c0-17-6.7-32.5-17.5-44.2c-0.2-0.2-0.2-0.5-0.4-0.7c-0.2-0.2-0.4-0.3-0.6-0.5c-12.2-12.8-29.5-20.8-48.7-20.8
				H-26.9c-19.2,0-36.5,8.1-48.7,20.8c-0.2,0.2-0.4,0.3-0.6,0.5c-0.2,0.2-0.2,0.5-0.4,0.7C-87.4-10.8-94.1,4.6-94.1,21.7v390.6
				c0,17.5,7,33.2,18.3,45.1c0.2,0.2,0.3,0.6,0.5,0.8c0.1,0.1,0.2,0.1,0.3,0.2c12.2,12.4,29.3,20.2,48.2,20.2h665.6
				c18.9,0,36-7.8,48.2-20.2c0.1-0.1,0.2-0.1,0.3-0.2c0.2-0.2,0.3-0.5,0.5-0.8c11.2-11.8,18.3-27.6,18.3-45.1L706,21.7L706,21.7z
				 M444.1,196.4L674.7,5.7c2.3,4.9,3.6,10.3,3.6,16v390.6c0,5.2-1.1,10.1-2.9,14.6L444.1,196.4z M638.8-17.3
				c5.8,0,11.3,1.3,16.3,3.6L306,275L-43.1-13.7c5-2.2,10.5-3.6,16.3-3.6H638.8z M-63.4,426.9c-1.9-4.5-2.9-9.4-2.9-14.6V21.7
				c0-5.7,1.3-11.1,3.6-16l230.6,190.7L-63.4,426.9z M-26.9,451.3c-6.4,0-12.4-1.7-17.7-4.3l233.7-233l108,89.3
				c2.6,2.1,5.7,3.2,8.9,3.2c3.2,0,6.3-1.1,8.9-3.2l108-89.3l233.7,233c-5.4,2.7-11.3,4.3-17.7,4.3L-26.9,451.3L-26.9,451.3z"/>
		</g>
	</g>
</g>
</svg>
