<?xml version="1.0" encoding="UTF-8" standalone="no"?>
<svg width="597px" height="986px" viewBox="0 0 597 986" version="1.1" xmlns="http://www.w3.org/2000/svg" xmlns:xlink="http://www.w3.org/1999/xlink">
    <!-- Generator: Sketch 41.2 (35397) - http://www.bohemiancoding.com/sketch -->
    <title>facebook-logo (1)</title>
    <desc>Created with Sketch.</desc>
    <defs></defs>
    <g id="---" stroke="none" stroke-width="1" fill="none" fill-rule="evenodd">
        <g id="facebook-logo-(1)" fill="#FFFFFF">
            <g id="Capa_1">
                <path d="M573.981795,0.205058278 L431.142388,0 C270.667212,0 166.961104,95.1983053 166.961104,242.542931 L166.961104,354.371462 L23.3424687,354.371462 C10.9321135,354.371462 0.882361361,363.373521 0.882361361,374.477426 L0.882361361,536.504224 C0.882361361,547.60813 10.9435727,556.599936 23.3424687,556.599936 L166.961104,556.599936 L166.961104,965.445129 C166.961104,976.549035 177.010856,985.54084 189.421212,985.54084 L376.802679,985.54084 C389.213034,985.54084 399.262786,976.538782 399.262786,965.445129 L399.262786,556.599936 L567.186467,556.599936 C579.596822,556.599936 589.646574,547.60813 589.646574,536.504224 L589.715329,374.477426 C589.715329,369.145911 587.343267,364.03996 583.137727,360.266888 C578.932186,356.493815 573.202567,354.371462 567.243763,354.371462 L399.262786,354.371462 L399.262786,259.573021 C399.262786,214.009071 411.39812,190.878498 477.735651,190.878498 L573.958877,190.847739 C586.357773,190.847739 596.407525,181.84568 596.407525,170.752028 L596.407525,20.3007695 C596.407525,9.21736957 586.369232,0.225564105 573.981795,0.205058278 Z" id="Shape"></path>
            </g>
        </g>
    </g>
</svg>