<?xml version="1.0" encoding="utf-8"?>
<!-- Generator: Adobe Illustrator 18.0.0, SVG Export Plug-In . SVG Version: 6.00 Build 0)  -->
<!DOCTYPE svg PUBLIC "-//W3C//DTD SVG 1.1//EN" "http://www.w3.org/Graphics/SVG/1.1/DTD/svg11.dtd">
<svg version="1.1" id="Capa_1" xmlns="http://www.w3.org/2000/svg" xmlns:xlink="http://www.w3.org/1999/xlink" x="0px" y="0px"
	 viewBox="-351.6 -703.2 800 800" enable-background="new -351.6 -703.2 800 800" xml:space="preserve">
<g>
	<g>
		<path d="M166.7-703.2H-27.8c-86.7,0-146.6,18.7-200.6,62.5c-42.5,36-67.8,88.3-67.8,139.9c0,79.5,61.7,164,176.1,164
			c11,0,23.2-1.1,33.9-2.1l-1.6,3.8c-4.6,10.8-9,21-9,37c0,31,15.2,50.1,30,68.6l1.9,2.3l-3.3,0.2c-47.2,3.2-135.1,9.1-199.4,47.9
			c-75.8,44.3-81.7,108.7-81.7,127.4c0,74.3,70.5,149.4,228.1,149.4c183.2,0,279.1-99.3,279.1-197.4c0-72.5-43.3-108.4-89.3-146.4
			l-38.8-29.6C17.9-285.5,3-297.6,3-320.1c0-22.1,14.9-36.7,28.1-49.6l1.4-1.4c41.9-32.4,89.3-69.1,89.3-148.6
			c0-79.9-50.8-121.2-75.3-141h64.5c0.8,0,1.6-0.2,2.2-0.6l55.6-34.3c1.6-1,2.3-2.9,1.8-4.6C170.2-702,168.5-703.2,166.7-703.2z
			 M-69.2,53.9c-111.7,0-186.7-51.2-186.7-127.5c0-49.8,30.7-86,91.1-107.5c48.4-16,110.9-16.8,111.5-16.8c10.6,0,15.9,0,24.4,1
			C49.3-142.2,86.9-113.5,86.9-58.9C86.9,10.7,27.1,53.9-69.2,53.9z M-70.2-366.1c-93.7,0-132.6-121-132.6-185.8
			c0-33,7.6-58.2,23.3-77.3c17-20.9,46.2-34.5,74.3-34.5c86.1,0,133.7,113.6,133.7,192.2c0,12.4,0,50.1-26.5,76.3
			C-15.9-377.8-44.9-366.1-70.2-366.1z"/>
		<path d="M439.2-329.1H336.7v-100.3c0-2.3-1.9-4.1-4.2-4.1h-44.1c-2.3,0-4.2,1.9-4.2,4.1v100.3h-102c-2.3,0-4.2,1.9-4.2,4.1v43.9
			c0,2.3,1.9,4.1,4.2,4.1h102v100.9c0,2.3,1.9,4.1,4.2,4.1h44.1c2.3,0,4.2-1.9,4.2-4.1V-277h102.5c2.3,0,4.2-1.8,4.2-4.1V-325
			C443.4-327.3,441.5-329.1,439.2-329.1z"/>
	</g>
</g>
</svg>
