<?xml version="1.0" encoding="utf-8"?>
<!-- Generator: Adobe Illustrator 18.0.0, SVG Export Plug-In . SVG Version: 6.00 Build 0)  -->
<!DOCTYPE svg PUBLIC "-//W3C//DTD SVG 1.1//EN" "http://www.w3.org/Graphics/SVG/1.1/DTD/svg11.dtd">
<svg version="1.1" id="Capa_1" xmlns="http://www.w3.org/2000/svg" xmlns:xlink="http://www.w3.org/1999/xlink" x="0px" y="0px"
	 viewBox="-20 -440 1000 1000" enable-background="new -20 -440 1000 1000" xml:space="preserve">
<g>
	<path id="LinkedIn__x28_alt_x29_" d="M906.1-435H53.9C13-435-20-403.4-20-364.1v846.3c0,39.1,33,70.9,73.9,70.9h852.3
		c40.8,0,73.9-31.8,73.9-70.9v-846.3C980-403.4,947-435,906.1-435z M283.2,391.8H132.1v-446h151.1V391.8z M207.6-115h-1.1
		c-50.7,0-83.6-34.3-83.6-77c0-43.6,33.8-77,85.5-77c51.6,0,83.4,33.2,84.5,77C293.1-149.3,260.3-115,207.6-115z M827.7,391.8H676.6
		V153.3c0-59.9-21.9-100.9-76.5-100.9c-41.7,0-66.6,27.6-77.4,54.2c-4.1,9.5-4.9,22.8-4.9,36v249.2H366.6c0,0,1.9-404.1,0-446h151.1
		V9.1c20-30.4,55.8-73.7,136.1-73.7c99.5,0,173.9,63.8,173.9,200.7L827.7,391.8L827.7,391.8z M516.8,10.5c0.2-0.4,0.5-0.9,1.1-1.4
		v1.4H516.8z"/>
</g>
</svg>
