<svg xmlns="http://www.w3.org/2000/svg" width="26" height="19" viewBox="0 0 26 19">
    <path fill="#FFF" fill-rule="nonzero" d="M23.111 0H2.89C1.294 0 0 1.31 0 2.923v13.154C0 17.69 1.294 19 2.889 19H23.11C24.706 19 26 17.69 26 16.077V2.923C26 1.31 24.706 0 23.111 0zM9.123 10.693l2.314 2.046c.44.389.998.581 1.563.581s1.122-.194 1.563-.581l2.314-2.046-.054.054 5.267 5.328H3.91l5.267-5.328-.054-.054zm-6.234 4.35v-9.87L8.092 9.78l-5.203 5.265zm15.02-5.264l5.202-4.605v9.865l-5.203-5.26zm5.202-6.856v.307l-9.499 8.41c-.327.29-.897.29-1.224 0l-9.5-8.41v-.307h20.223z"/>
</svg>
