<?xml version="1.0" encoding="utf-8"?>
<!-- Generator: Adobe Illustrator 18.0.0, SVG Export Plug-In . SVG Version: 6.00 Build 0)  -->
<!DOCTYPE svg PUBLIC "-//W3C//DTD SVG 1.1//EN" "http://www.w3.org/Graphics/SVG/1.1/DTD/svg11.dtd">
<svg version="1.1" id="Capa_1" xmlns="http://www.w3.org/2000/svg" xmlns:xlink="http://www.w3.org/1999/xlink" x="0px" y="0px"
	 viewBox="347 197 800 800" enable-background="new 347 197 800 800" xml:space="preserve">
<g>
	<path d="M981.1,692.5c-16.4-17.1-36.2-26.2-57.2-26.2c-20.8,0-40.8,9-57.8,26l-53.4,53.2c-4.4-2.4-8.8-4.6-13-6.8
		c-6.1-3-11.8-5.9-16.7-9c-50.1-31.8-95.5-73.1-139.2-126.7c-21.1-26.7-35.3-49.2-45.7-72c13.9-12.7,26.7-25.8,39.2-38.5
		c4.7-4.7,9.5-9.6,14.2-14.4c35.5-35.5,35.5-81.4,0-116.9l-46.2-46.1c-5.2-5.2-10.7-10.6-15.7-16c-10.1-10.5-20.8-21.3-31.8-31.4
		c-16.4-16.2-36-24.8-56.6-24.8c-20.6,0-40.6,8.6-57.5,24.8c-0.2,0.2-0.2,0.2-0.3,0.3l-57.5,57.9c-21.6,21.6-34,48-36.7,78.5
		c-4.1,49.3,10.5,95.3,21.6,125.3c27.4,73.8,68.3,142.2,129.4,215.5c74.1,88.3,163.2,158.1,265,207.3
		c38.9,18.4,90.8,40.2,148.8,43.9c3.6,0.2,7.3,0.3,10.7,0.3c39.1,0,71.9-14,97.6-41.9c0.2-0.3,0.5-0.5,0.7-0.8
		c8.8-10.6,18.9-20.3,29.6-30.6c7.3-6.9,14.7-14.2,22-21.8c16.7-17.4,25.5-37.7,25.5-58.4c0-20.9-9-41-26-57.9L981.1,692.5z
		 M1041.7,870.3C1041.5,870.3,1041.5,870.5,1041.7,870.3c-6.6,7.1-13.4,13.5-20.6,20.6c-11,10.5-22.2,21.5-32.6,33.8
		c-17.1,18.2-37.2,26.9-63.6,26.9c-2.5,0-5.2,0-7.8-0.2c-50.2-3.2-96.9-22.8-131.9-39.5c-95.7-46.3-179.7-112-249.6-195.3
		c-57.7-69.4-96.2-133.6-121.7-202.5c-15.7-42.1-21.5-74.8-18.9-105.7c1.7-19.8,9.3-36.1,23.3-50.2l57.7-57.6
		c8.3-7.8,17.1-12,25.7-12c10.7,0,19.3,6.4,24.7,11.8c0.2,0.2,0.3,0.3,0.5,0.5c10.3,9.6,20.1,19.6,30.4,30.2
		c5.2,5.4,10.7,10.8,16.1,16.4l46.2,46.1c17.9,17.9,17.9,34.5,0,52.4c-4.9,4.9-9.6,9.8-14.5,14.5c-14.2,14.5-27.7,28-42.4,41.2
		c-0.3,0.3-0.7,0.5-0.8,0.8c-14.5,14.5-11.8,28.7-8.8,38.3c0.2,0.5,0.3,1,0.5,1.5c12,29.1,28.9,56.4,54.6,89l0.2,0.2
		c46.7,57.4,95.9,102.2,150.2,136.5c6.9,4.4,14,7.9,20.8,11.3c6.1,3,11.8,5.9,16.7,9c0.7,0.3,1.4,0.8,2,1.2
		c5.7,2.9,11.2,4.2,16.7,4.2c14,0,22.8-8.8,25.7-11.7l57.8-57.8c5.7-5.7,14.9-12.7,25.5-12.7c10.5,0,19.1,6.6,24.3,12.3
		c0.2,0.2,0.2,0.2,0.3,0.3l93.2,93.1C1058.9,834.7,1058.9,852.4,1041.7,870.3z"/>
	<path d="M780.9,387.1c44.3,7.4,84.5,28.4,116.7,60.5c32.1,32.1,52.9,72.3,60.5,116.5c1.9,11.1,11.5,18.9,22.5,18.9
		c1.4,0,2.5-0.2,3.9-0.3c12.5-2,20.8-13.9,18.8-26.4c-9.1-53.5-34.5-102.4-73.2-141c-38.7-38.7-87.6-64-141.2-73.1
		c-12.5-2-24.2,6.2-26.4,18.6S768.4,385,780.9,387.1z"/>
	<path d="M1148.2,549.7c-15-88.2-56.6-168.4-120.6-232.3S883.4,212.1,795.1,197c-12.3-2.2-24,6.2-26.2,18.6
		c-2,12.5,6.3,24.2,18.8,26.4c78.8,13.3,150.7,50.7,207.8,107.6c57.2,57.1,94.4,128.9,107.7,207.6c1.9,11.1,11.5,18.9,22.5,18.9
		c1.4,0,2.5-0.2,3.9-0.3C1141.9,573.9,1150.4,562.1,1148.2,549.7z"/>
</g>
</svg>
