<?xml version="1.0" encoding="UTF-8"?>
<svg width="791px" height="1429px" viewBox="0 0 791 1429" version="1.1" xmlns="http://www.w3.org/2000/svg" xmlns:xlink="http://www.w3.org/1999/xlink">
    <!-- Generator: Sketch 42 (36781) - http://www.bohemiancoding.com/sketch -->
    <title>Icon_Fichier 2Smartphone</title>
    <desc>Created with Sketch.</desc>
    <defs></defs>
    <g id="Symbols" stroke="none" stroke-width="1" fill="none" fill-rule="evenodd">
        <g id="Icon_Fichier-2Smartphone" fill-rule="nonzero" fill="#FFFFFF">
            <g id="190ae0f8-2409-4618-848d-bcf062445bd8">
                <g>
                    <g>
                        <g id="27d74645-a24a-4859-bfc1-86438e0d83c4">
                            <path d="M653.758142,1.53440751e-14 L136.959611,1.53440751e-14 C61.355457,0.0888674844 0.0881681993,61.8420832 0,138.045873 L0,1290.14835 C0.0881681993,1366.35214 61.355457,1428.10536 136.959611,1428.19422 L653.758142,1428.19422 C729.362296,1428.10536 790.629585,1366.35214 790.717753,1290.14835 L790.717753,138.045873 C790.629585,61.8420832 729.362296,0.0888674844 653.758142,0 L653.758142,1.53440751e-14 Z M47.9998636,262.061384 L742.717889,262.061384 L742.717889,1120.01004 L47.9998636,1120.01004 L47.9998636,262.061384 Z M136.959611,48.3805631 L653.758142,48.3805631 C702.852731,48.4693238 742.629827,88.5619025 742.717889,138.045873 L742.717889,213.68082 L47.9998636,213.68082 L47.9998636,138.045873 C48.0879259,88.5619025 87.8650219,48.4693238 136.959611,48.3805631 L136.959611,48.3805631 Z M653.758142,1380.29747 L136.959611,1380.29747 C113.295775,1380.2548 90.6203378,1370.7278 73.9325338,1353.81689 C57.2447298,1336.90597 47.9148567,1313.99975 47.9998636,1290.14835 L47.9998636,1168.55187 L742.717889,1168.55187 L742.717889,1290.14835 C742.802896,1313.99975 733.473023,1336.90597 716.785219,1353.81689 C700.097415,1370.7278 677.421978,1380.2548 653.758142,1380.29747 L653.758142,1380.29747 Z" id="Shape"></path>
                            <path d="M333.919051,146.109301 L456.798702,146.109301 C470.053498,146.109301 480.798634,135.278943 480.798634,121.919019 C480.798634,108.559095 470.053498,97.7287375 456.798702,97.7287375 L333.919051,97.7287375 C320.664255,97.7287375 309.919119,108.559095 309.919119,121.919019 C309.919119,135.278943 320.664255,146.109301 333.919051,146.109301 Z" id="Shape"></path>
                            <path d="M397.438871,1203.86968 C321.279087,1203.86968 309.919119,1246.60584 309.919119,1272.08627 C309.919119,1297.5667 321.279087,1340.30287 397.438871,1340.30287 C473.598654,1340.30287 484.958622,1297.5667 484.958622,1272.08627 C484.958622,1246.60584 473.598654,1203.86968 397.438871,1203.86968 Z M397.438871,1292.08357 C357.918983,1292.08357 357.918983,1280.63351 357.918983,1272.24754 C357.918983,1263.86158 357.918983,1252.41151 397.438871,1252.41151 C436.958758,1252.41151 436.958758,1263.86158 436.958758,1272.24754 C436.958758,1280.63351 436.958758,1292.08357 397.438871,1292.08357 Z" id="Shape"></path>
                        </g>
                    </g>
                </g>
            </g>
        </g>
    </g>
</svg>