<?xml version="1.0" encoding="utf-8"?>
<!-- Generator: Adobe Illustrator 18.0.0, SVG Export Plug-In . SVG Version: 6.00 Build 0)  -->
<!DOCTYPE svg PUBLIC "-//W3C//DTD SVG 1.1//EN" "http://www.w3.org/Graphics/SVG/1.1/DTD/svg11.dtd">
<svg version="1.1" id="Layer_1" xmlns="http://www.w3.org/2000/svg" xmlns:xlink="http://www.w3.org/1999/xlink" x="0px" y="0px"
	 viewBox="80 -240 800 800" enable-background="new 80 -240 800 800" xml:space="preserve">
<g id="XMLID_798_">
	<path id="XMLID_799_" d="M721.9-157.3c-54.8-52.8-130.7-81.9-213.7-81.9c-126.7,0-204.7,52.1-247.7,95.8
		C207.4-89.5,176.9-18,176.9,52.9c0,89,37.1,157.2,99.2,182.6c4.2,1.7,8.4,2.6,12.5,2.6c13.1,0,23.5-8.6,27.1-22.4
		c2.1-7.9,7-27.4,9.1-35.9c4.5-16.7,0.9-24.8-9-36.5c-18-21.3-26.3-46.5-26.3-79.4c0-97.5,72.4-201.1,206.5-201.1
		c106.4,0,172.5,60.7,172.5,158.3c0,61.6-13.2,118.7-37.3,160.7c-16.7,29.2-46.1,64-91.2,64c-19.5,0-37-8-48.1-22
		c-10.4-13.2-13.9-30.3-9.7-48.2c4.7-20.1,11.2-41.2,17.5-61.5c11.4-37.1,22.2-72.1,22.2-100.1c0-47.8-29.3-79.9-72.9-79.9
		c-55.4,0-98.8,56.5-98.8,128.6c0,35.4,9.4,61.8,13.6,71.9c-7,29.7-48.5,206.1-56.3,239.4c-4.6,19.4-32,172.8,13.4,185
		c51,13.7,96.5-135.6,101.2-152.5c3.8-13.7,16.9-65.6,25-97.6c24.6,23.8,64.2,39.9,102.8,39.9c72.7,0,138.1-32.8,184.1-92.4
		c44.6-57.8,69.2-138.3,69.2-226.8C803.1-39.4,773.5-107.6,721.9-157.3z"/>
</g>
</svg>
