<?xml version="1.0" encoding="utf-8"?>
<!-- Generator: Adobe Illustrator 18.0.0, SVG Export Plug-In . SVG Version: 6.00 Build 0)  -->
<!DOCTYPE svg PUBLIC "-//W3C//DTD SVG 1.1//EN" "http://www.w3.org/Graphics/SVG/1.1/DTD/svg11.dtd">
<svg version="1.1" id="Layer_1" xmlns="http://www.w3.org/2000/svg" xmlns:xlink="http://www.w3.org/1999/xlink" x="0px" y="0px"
	 viewBox="80 -240 800 800" enable-background="new 80 -240 800 800" xml:space="preserve">
<g>
	<path d="M762.8-122.8C687.3-198.4,586.8-240,480-240s-207.3,41.6-282.8,117.2C121.6-47.3,80,53.2,80,160s41.6,207.3,117.2,282.8
		C272.7,518.4,373.2,560,480,560s207.3-41.6,282.8-117.2C838.4,367.3,880,266.8,880,160S838.4-47.3,762.8-122.8z M480,510.5
		c-193.3,0-350.5-157.2-350.5-350.5S286.7-190.5,480-190.5S830.5-33.3,830.5,160S673.3,510.5,480,510.5z"/>
	<polygon points="398.7,-16.3 574.5,160 398.7,336.3 433.8,371.3 644.4,160 433.8,-51.3 	"/>
</g>
</svg>
