<?xml version="1.0" encoding="utf-8"?>
<!-- Generator: Adobe Illustrator 18.0.0, SVG Export Plug-In . SVG Version: 6.00 Build 0)  -->
<!DOCTYPE svg PUBLIC "-//W3C//DTD SVG 1.1//EN" "http://www.w3.org/Graphics/SVG/1.1/DTD/svg11.dtd">
<svg version="1.1" id="Capa_1" xmlns="http://www.w3.org/2000/svg" xmlns:xlink="http://www.w3.org/1999/xlink" x="0px" y="0px"
	 viewBox="-20 -440 1000 1000" enable-background="new -20 -440 1000 1000" xml:space="preserve">
<g>
	<path fill="#010002" d="M980-230.7c-36.8,16.2-76.3,27.3-117.8,32.2c42.3-25.3,74.8-65.7,90.2-113.4
		c-39.7,23.5-83.7,40.5-130.4,49.8c-37.4-39.9-90.7-64.9-149.7-64.9c-113.2,0-205.2,91.8-205.2,205.1c0,16,1.8,31.7,5.4,46.7
		c-170.4-8.5-321.6-90.2-422.9-214.4C32-259.3,21.8-224,21.8-186.4c0,71.2,36.3,134,91.2,170.8C79.3-16.8,47.8-26,20-41.5v2.6
		c0,99.3,70.8,182.4,164.5,201.1c-17.2,4.6-35.3,7.2-54.1,7.2c-13.2,0-26-1.3-38.6-3.8c26.1,81.5,101.8,140.8,191.7,142.5
		c-70.1,55.1-158.7,87.7-254.7,87.7c-16.5,0-32.8-1-48.9-2.8c90.8,58.3,198.5,92.3,314.4,92.3C671.7,485.5,878,172.9,878-98.2
		l-0.7-26.6C917.7-153.6,952.5-189.7,980-230.7z"/>
</g>
</svg>
