<?xml version="1.0" encoding="utf-8"?>
<!-- Generator: Adobe Illustrator 18.0.0, SVG Export Plug-In . SVG Version: 6.00 Build 0)  -->
<!DOCTYPE svg PUBLIC "-//W3C//DTD SVG 1.1//EN" "http://www.w3.org/Graphics/SVG/1.1/DTD/svg11.dtd">
<svg version="1.1" id="Capa_1" xmlns="http://www.w3.org/2000/svg" xmlns:xlink="http://www.w3.org/1999/xlink" x="0px" y="0px"
	 viewBox="-20 -440 1000 1000" enable-background="new -20 -440 1000 1000" xml:space="preserve">
<g>
	<path id="YouTube" d="M810.9,291.4h-61.5l0.2-32c0-14.1,13.1-25.7,29-25.7h4c15.9,0,29.2,11.6,29.2,25.7L810.9,291.4z M580,223.2
		c-15.7,0-28.4,9.3-28.4,20.9v155c0,11.4,12.9,20.7,28.4,20.7c15.7,0,28.6-9.3,28.6-20.7V243.9C608.4,232.5,595.7,223.2,580,223.2z
		 M955.1,136.4v295c0,70.7-68.8,128.6-153.1,128.6H172.9c-84.3,0-153.1-57.9-153.1-128.6v-295C19.9,65.7,88.6,7.9,172.9,7.9h629.2
		C886.4,7.9,955.1,65.7,955.1,136.4z M214.8,463.4V152.7h78v-46.1l-208-0.2v45.2l65,0.2v311.6H214.8z M448.7,198.9h-65v165.9
		c0,23.9,1.6,36.1,0,40.2c-5.2,12.9-29,26.6-38.4,1.4c-1.6-4.5-0.2-17.7-0.2-40.5l-0.2-167h-64.8l0.2,164.5
		c0,25.2-0.6,43.9,0.2,52.5c1.6,15,1,32.7,16.7,42.7c29.2,18.8,85.3-2.9,99.4-29.6l-0.2,34.3h52.3L448.7,198.9L448.7,198.9z
		 M656.7,388.9l-0.2-138c0-52.7-44.2-84.1-104.2-41.6l0.2-102.7h-65l-0.4,354.3l53.5-0.7l4.8-22.1
		C613.8,494.1,656.9,455.9,656.7,388.9z M860.2,370.7l-48.7,0.2c0,1.8,0,3.8-0.2,5.9v24.3c0,13-12.1,23.6-26.5,23.6h-9.7
		c-14.7,0-26.8-10.5-26.8-23.6v-2.7v-26.6v-34.5H860v-37.5c0-27.3-0.8-54.6-3.4-70.4c-8-49.5-85.9-57.3-125.3-32
		c-12.3,7.9-21.7,18.6-27.4,32.7c-5.6,14.3-8.2,33.7-8.2,58.4v82.3C695.9,507.7,882.5,488.4,860.2,370.7z M610.2-76.3
		c3.4,7.3,8.6,13.2,15.7,17.7c7,4.5,15.9,6.6,26.5,6.6c9.5,0,17.7-2.3,24.9-7c7.2-4.6,13.3-11.6,18.3-20.7L694.5-57h72.4v-274.8
		h-57.1V-118c0,11.6-10.7,21.1-23.7,21.1c-13.1,0-23.7-9.5-23.7-21.1v-213.7h-59.5v185.2c0,23.6,0.4,39.3,1.2,47.3
		C604.8-91.2,606.8-83.8,610.2-76.3z M390.4-231.4c0-26.4,2.4-47,7.4-61.8c5-14.8,13.9-26.6,26.5-35.7c12.9-8.9,29.2-13.6,49.1-13.6
		c16.7,0,31.2,2.9,43,8.8c12.1,5.7,21.3,13.2,27.8,22.5c6.6,9.3,11.1,18.8,13.5,28.6s3.6,24.8,3.6,45v69.5c0,25.5-1.2,44.3-3.4,56.1
		c-2.2,12-7,23-14.3,33.4c-7.2,10.2-16.5,17.9-28,22.9s-24.5,7.3-39.4,7.3c-16.5,0-30.4-2-41.8-6.2c-11.5-4.3-20.3-10.5-26.8-19.1
		c-6.4-8.4-10.9-18.8-13.7-30.7c-2.8-12-4-30-4-54.1L390.4-231.4L390.4-231.4z M447.3-122.3c0,15.5,13.1,28.2,28.8,28.2
		c15.9,0,28.8-12.7,28.8-28.2v-146.2c0-15.5-12.9-28.2-28.8-28.2c-15.9,0-28.8,12.7-28.8,28.2V-122.3z M246.5-48.6h68.4v-210.7
		l80.9-180.4H321l-43,134.1L234.5-440h-74l85.9,180.9L246.5-48.6z"/>
</g>
</svg>
