<svg xmlns="http://www.w3.org/2000/svg" xmlns:xlink="http://www.w3.org/1999/xlink" viewBox="0 0 437 289"><defs><style>.cls-1{isolation:isolate;}.cls-2{fill:url(#Dégradé_sans_nom_42);}.cls-3{fill:url(#Dégradé_sans_nom_42-2);}.cls-4{fill:url(#Dégradé_sans_nom_42-3);}.cls-5{fill:url(#Dégradé_sans_nom_42-4);}.cls-6{fill:url(#Dégradé_sans_nom_42-5);}.cls-7{fill:url(#Dégradé_sans_nom_42-6);}.cls-8{fill:#9f9fa3;}.cls-9{fill:#35363d;}.cls-10{opacity:0.05;mix-blend-mode:multiply;fill:url(#Dégradé_sans_nom_42-7);}.cls-11,.cls-12{opacity:0.1;}.cls-11{fill:url(#Dégradé_sans_nom_13);}.cls-12{fill:url(#Dégradé_sans_nom_13-2);}</style><linearGradient id="Dégradé_sans_nom_42" x1="50" y1="258.03" x2="50" y2="187.78" gradientUnits="userSpaceOnUse"><stop offset="0" stop-color="#651fff"/><stop offset="0.27" stop-color="#5352ec"/><stop offset="0.89" stop-color="#25d2be"/><stop offset="1" stop-color="#1de9b6"/></linearGradient><linearGradient id="Dégradé_sans_nom_42-2" x1="116" y1="258.03" x2="116" y2="167.52" xlink:href="#Dégradé_sans_nom_42"/><linearGradient id="Dégradé_sans_nom_42-3" x1="182" y1="258.03" x2="182" y2="127.12" xlink:href="#Dégradé_sans_nom_42"/><linearGradient id="Dégradé_sans_nom_42-4" x1="248" y1="258.03" x2="248" y2="85.82" xlink:href="#Dégradé_sans_nom_42"/><linearGradient id="Dégradé_sans_nom_42-5" x1="314" y1="258.03" x2="314" y2="51.18" xlink:href="#Dégradé_sans_nom_42"/><linearGradient id="Dégradé_sans_nom_42-6" x1="380" y1="258.03" x2="380" y2="30.89" xlink:href="#Dégradé_sans_nom_42"/><linearGradient id="Dégradé_sans_nom_42-7" x1="226.43" y1="170.94" x2="288.43" y2="314.28" xlink:href="#Dégradé_sans_nom_42"/><linearGradient id="Dégradé_sans_nom_13" x1="170.26" y1="293.73" x2="238.26" y2="220.4" gradientUnits="userSpaceOnUse"><stop offset="0" stop-color="#35363d"/><stop offset="1" stop-color="#35363d"/></linearGradient><linearGradient id="Dégradé_sans_nom_13-2" x1="166.43" y1="298.13" x2="229.2" y2="230.43" xlink:href="#Dégradé_sans_nom_13"/></defs><title>graphique</title><g class="cls-1"><g id="Calque_1" data-name="Calque 1"><rect class="cls-2" x="20.25" y="187.78" width="59.5" height="70.25"/><rect class="cls-3" x="86.25" y="167.52" width="59.5" height="90.51"/><rect class="cls-4" x="152.25" y="127.12" width="59.5" height="130.91"/><rect class="cls-5" x="218.25" y="85.82" width="59.5" height="172.21"/><rect class="cls-6" x="284.25" y="51.18" width="59.5" height="206.85"/><rect class="cls-7" x="350.25" y="30.89" width="59.5" height="227.14"/><path class="cls-8" d="M40.15,271H43v1H38.26V272l.45-.53q1.06-1.31,1.68-2.22a8.42,8.42,0,0,0,.82-1.38,2.43,2.43,0,0,0,.19-.92,1.43,1.43,0,0,0-.36-1,1.25,1.25,0,0,0-1-.38,1.69,1.69,0,0,0-.89.27,2.72,2.72,0,0,0-.79.75v-1.36a2.83,2.83,0,0,1,1.8-.71,2.16,2.16,0,0,1,1.62.66,2.29,2.29,0,0,1,.64,1.67,3.28,3.28,0,0,1-.16,1,5.56,5.56,0,0,1-.56,1.18,16,16,0,0,1-1.37,1.82Z"/><path class="cls-8" d="M46.84,264.43a2,2,0,0,1,1.71,1.08,6,6,0,0,1,0,5.52,2,2,0,0,1-3.5,0,6.08,6.08,0,0,1,0-5.56A2,2,0,0,1,46.84,264.43Zm0,1h-.05a1.1,1.1,0,0,0-1,.76,4.86,4.86,0,0,0-.36,2.06,5,5,0,0,0,.35,2.09,1,1,0,0,0,2,0,4.87,4.87,0,0,0,.36-2.06,5.16,5.16,0,0,0-.35-2.08Q47.43,265.45,46.85,265.45Z"/><path class="cls-8" d="M52.43,264.53H53.5V272H52.43Z"/><path class="cls-8" d="M59.74,264.51l.11-.07.65.82a6.55,6.55,0,0,0-1.43,1.21A4.67,4.67,0,0,0,58.2,268a2.58,2.58,0,0,1,1.19-.31,2,2,0,0,1,1.49.63,2.13,2.13,0,0,1,.61,1.54,2.16,2.16,0,0,1-.66,1.59,2.2,2.2,0,0,1-1.61.66,2.17,2.17,0,0,1-1.71-.74,2.85,2.85,0,0,1-.65-1.95,5.07,5.07,0,0,1,.34-1.8,6,6,0,0,1,1-1.68A7.65,7.65,0,0,1,59.74,264.51ZM58,269.12a3.35,3.35,0,0,0,0,.56,1.5,1.5,0,0,0,.37,1,1.21,1.21,0,0,0,.94.41,1.13,1.13,0,0,0,.85-.35,1.22,1.22,0,0,0,.34-.88,1.15,1.15,0,0,0-.36-.88,1.32,1.32,0,0,0-.94-.33,1.55,1.55,0,0,0-.54.09A3.07,3.07,0,0,0,58,269.12Z"/><path class="cls-8" d="M106.28,271h2.86v1h-4.75V272l.45-.53q1.06-1.31,1.68-2.22a8.42,8.42,0,0,0,.82-1.38,2.43,2.43,0,0,0,.19-.92,1.43,1.43,0,0,0-.36-1,1.25,1.25,0,0,0-1-.38,1.69,1.69,0,0,0-.89.27,2.72,2.72,0,0,0-.79.75v-1.36a2.83,2.83,0,0,1,1.8-.71,2.16,2.16,0,0,1,1.62.66,2.29,2.29,0,0,1,.64,1.67,3.28,3.28,0,0,1-.16,1,5.56,5.56,0,0,1-.56,1.18,16,16,0,0,1-1.37,1.82Z"/><path class="cls-8" d="M113,264.43a2,2,0,0,1,1.71,1.08,6,6,0,0,1,0,5.52,2,2,0,0,1-3.5,0,6.08,6.08,0,0,1,0-5.56A2,2,0,0,1,113,264.43Zm0,1h-.05a1.1,1.1,0,0,0-1,.76,4.86,4.86,0,0,0-.36,2.06,5,5,0,0,0,.35,2.09,1,1,0,0,0,2,0,4.87,4.87,0,0,0,.36-2.06,5.16,5.16,0,0,0-.35-2.08Q113.56,265.45,113,265.45Z"/><path class="cls-8" d="M118.55,264.53h1.07V272h-1.07Z"/><path class="cls-8" d="M123,264.53h4.86l-3.4,7.59-1-.4,2.74-6.16H123Z"/><path class="cls-8" d="M172.4,271h2.86v1h-4.75V272l.45-.53q1.06-1.31,1.68-2.22a8.42,8.42,0,0,0,.82-1.38,2.43,2.43,0,0,0,.19-.92,1.43,1.43,0,0,0-.36-1,1.25,1.25,0,0,0-1-.38,1.69,1.69,0,0,0-.89.27,2.72,2.72,0,0,0-.79.75v-1.36a2.83,2.83,0,0,1,1.8-.71,2.16,2.16,0,0,1,1.62.66,2.29,2.29,0,0,1,.64,1.67,3.28,3.28,0,0,1-.16,1,5.56,5.56,0,0,1-.56,1.18,16,16,0,0,1-1.37,1.82Z"/><path class="cls-8" d="M179.09,264.43a2,2,0,0,1,1.71,1.08,6,6,0,0,1,0,5.52,2,2,0,0,1-3.5,0,6.08,6.08,0,0,1,0-5.56A2,2,0,0,1,179.09,264.43Zm0,1H179a1.1,1.1,0,0,0-1,.76,4.86,4.86,0,0,0-.36,2.06,5,5,0,0,0,.35,2.09,1,1,0,0,0,2,0,4.87,4.87,0,0,0,.36-2.06,5.16,5.16,0,0,0-.35-2.08Q179.68,265.45,179.1,265.45Z"/><path class="cls-8" d="M184.68,264.53h1.07V272h-1.07Z"/><path class="cls-8" d="M189.14,266.54a2,2,0,0,1,.66-1.49,2.28,2.28,0,0,1,1.62-.61A2.23,2.23,0,0,1,193,265a2,2,0,0,1-.29,3.16,1.93,1.93,0,0,1,1,1.77,2,2,0,0,1-.68,1.54,2.69,2.69,0,0,1-3.42,0A2,2,0,0,1,189,270,1.94,1.94,0,0,1,190,268.2a2.64,2.64,0,0,1-.68-.77A1.84,1.84,0,0,1,189.14,266.54Zm3.53,3.48v-.11a1.07,1.07,0,0,0-.37-.84,1.39,1.39,0,0,0-1-.33,1.34,1.34,0,0,0-.94.33,1.17,1.17,0,0,0,0,1.7,1.58,1.58,0,0,0,1.89,0A1,1,0,0,0,192.68,270Zm-.09-3.44a1.06,1.06,0,0,0-.34-.81,1.31,1.31,0,0,0-1.71,0,1,1,0,0,0-.33.8,1.06,1.06,0,0,0,.35.8,1.18,1.18,0,0,0,.85.33,1.16,1.16,0,0,0,.83-.33A1.06,1.06,0,0,0,192.58,266.58Z"/><path class="cls-8" d="M238.53,271h2.86v1h-4.75V272l.45-.53q1.06-1.31,1.68-2.22a8.45,8.45,0,0,0,.82-1.38,2.42,2.42,0,0,0,.19-.92,1.43,1.43,0,0,0-.36-1,1.25,1.25,0,0,0-1-.38,1.69,1.69,0,0,0-.89.27,2.72,2.72,0,0,0-.79.75v-1.36a2.83,2.83,0,0,1,1.8-.71,2.16,2.16,0,0,1,1.62.66,2.29,2.29,0,0,1,.64,1.67,3.28,3.28,0,0,1-.16,1,5.56,5.56,0,0,1-.56,1.18,15.83,15.83,0,0,1-1.37,1.82Z"/><path class="cls-8" d="M245.21,264.43a2,2,0,0,1,1.71,1.08,6,6,0,0,1,0,5.52,2,2,0,0,1-3.5,0,6.08,6.08,0,0,1,0-5.56A2,2,0,0,1,245.21,264.43Zm0,1h-.05a1.1,1.1,0,0,0-1,.76,4.86,4.86,0,0,0-.36,2.06,5,5,0,0,0,.35,2.09,1,1,0,0,0,2,0,4.88,4.88,0,0,0,.36-2.06,5.16,5.16,0,0,0-.35-2.08C245.92,265.71,245.61,265.45,245.22,265.45Z"/><path class="cls-8" d="M250.8,264.53h1.07V272H250.8Z"/><path class="cls-8" d="M256.8,272.12l-.66-.78a6.16,6.16,0,0,0,1.46-1.28,4,4,0,0,0,.83-1.54,2.21,2.21,0,0,1-1.2.32,2,2,0,0,1-1.47-.64,2.23,2.23,0,0,1,0-3.12,2.18,2.18,0,0,1,1.6-.65,2.21,2.21,0,0,1,1.74.77,2.87,2.87,0,0,1,.68,2,5.28,5.28,0,0,1-.85,2.76A6.39,6.39,0,0,1,256.8,272.12Zm1.84-4.66a5,5,0,0,0,.06-.56,1.55,1.55,0,0,0-.36-1.06,1.18,1.18,0,0,0-.93-.41,1.15,1.15,0,0,0-.86.35,1.22,1.22,0,0,0-.34.88,1.13,1.13,0,0,0,.37.84,1.24,1.24,0,0,0,.89.35A2.05,2.05,0,0,0,258.63,267.46Z"/><path class="cls-8" d="M304.65,271h2.86v1h-4.75V272l.45-.53q1.06-1.31,1.68-2.22a8.45,8.45,0,0,0,.82-1.38,2.42,2.42,0,0,0,.19-.92,1.43,1.43,0,0,0-.36-1,1.25,1.25,0,0,0-1-.38,1.69,1.69,0,0,0-.89.27,2.72,2.72,0,0,0-.79.75v-1.36a2.83,2.83,0,0,1,1.8-.71,2.16,2.16,0,0,1,1.62.66,2.29,2.29,0,0,1,.64,1.67,3.28,3.28,0,0,1-.16,1,5.56,5.56,0,0,1-.56,1.18,15.83,15.83,0,0,1-1.37,1.82Z"/><path class="cls-8" d="M311.34,264.43a2,2,0,0,1,1.71,1.08,6,6,0,0,1,0,5.52,2,2,0,0,1-3.5,0,6.08,6.08,0,0,1,0-5.56A2,2,0,0,1,311.34,264.43Zm0,1h-.05a1.1,1.1,0,0,0-1,.76,4.86,4.86,0,0,0-.36,2.06,5,5,0,0,0,.35,2.09,1,1,0,0,0,2,0,4.88,4.88,0,0,0,.36-2.06,5.16,5.16,0,0,0-.35-2.08C312,265.71,311.74,265.45,311.35,265.45Z"/><path class="cls-8" d="M317,271h2.86v1h-4.75V272l.45-.53q1.06-1.31,1.68-2.22a8.38,8.38,0,0,0,.82-1.38,2.42,2.42,0,0,0,.19-.92,1.43,1.43,0,0,0-.36-1,1.25,1.25,0,0,0-1-.38,1.69,1.69,0,0,0-.89.27,2.73,2.73,0,0,0-.79.75v-1.36a2.83,2.83,0,0,1,1.8-.71,2.16,2.16,0,0,1,1.62.66,2.28,2.28,0,0,1,.64,1.67,3.28,3.28,0,0,1-.16,1,5.56,5.56,0,0,1-.56,1.18,16,16,0,0,1-1.37,1.82Z"/><path class="cls-8" d="M323.66,264.43a2,2,0,0,1,1.71,1.08,6,6,0,0,1,0,5.52,2,2,0,0,1-3.5,0,6.09,6.09,0,0,1,0-5.56A2,2,0,0,1,323.66,264.43Zm0,1h-.05a1.1,1.1,0,0,0-1,.76,4.84,4.84,0,0,0-.36,2.06,5,5,0,0,0,.36,2.09,1,1,0,0,0,2,0,4.88,4.88,0,0,0,.36-2.06,5.14,5.14,0,0,0-.35-2.08Q324.25,265.45,323.67,265.45Z"/><path class="cls-8" d="M370.78,271h2.86v1h-4.75V272l.45-.53q1.06-1.31,1.68-2.22a8.45,8.45,0,0,0,.82-1.38,2.42,2.42,0,0,0,.19-.92,1.43,1.43,0,0,0-.36-1,1.25,1.25,0,0,0-1-.38,1.69,1.69,0,0,0-.89.27,2.72,2.72,0,0,0-.79.75v-1.36a2.83,2.83,0,0,1,1.8-.71,2.16,2.16,0,0,1,1.62.66,2.29,2.29,0,0,1,.64,1.67,3.28,3.28,0,0,1-.16,1,5.56,5.56,0,0,1-.56,1.18,15.83,15.83,0,0,1-1.37,1.82Z"/><path class="cls-8" d="M377.46,264.43a2,2,0,0,1,1.71,1.08,6,6,0,0,1,0,5.52,2,2,0,0,1-3.5,0,6.08,6.08,0,0,1,0-5.56A2,2,0,0,1,377.46,264.43Zm0,1h-.05a1.1,1.1,0,0,0-1,.76,4.86,4.86,0,0,0-.36,2.06,5,5,0,0,0,.35,2.09,1,1,0,0,0,2,0,4.88,4.88,0,0,0,.36-2.06,5.16,5.16,0,0,0-.35-2.08C378.17,265.71,377.86,265.45,377.47,265.45Z"/><path class="cls-8" d="M383.1,271H386v1h-4.75V272l.45-.53q1.06-1.31,1.68-2.22a8.38,8.38,0,0,0,.82-1.38,2.42,2.42,0,0,0,.19-.92,1.43,1.43,0,0,0-.36-1,1.25,1.25,0,0,0-1-.38,1.69,1.69,0,0,0-.89.27,2.73,2.73,0,0,0-.79.75v-1.36a2.83,2.83,0,0,1,1.8-.71,2.16,2.16,0,0,1,1.62.66,2.28,2.28,0,0,1,.64,1.67,3.28,3.28,0,0,1-.16,1,5.56,5.56,0,0,1-.56,1.18,16,16,0,0,1-1.37,1.82Z"/><path class="cls-8" d="M389.21,264.53h1.07V272h-1.07Z"/><path class="cls-9" d="M111.68,148.77v.06l-4.12,10.31-1.73-.64,3.23-8H105v-1.76Z"/><path class="cls-9" d="M116.93,148.77V159h-1.87V148.77Z"/><path class="cls-9" d="M123.94,148.64a2.81,2.81,0,0,1,2.46,1.4,6.94,6.94,0,0,1,.91,3.82,7.14,7.14,0,0,1-.9,3.86,2.78,2.78,0,0,1-2.46,1.41,2.85,2.85,0,0,1-2.5-1.4,8.5,8.5,0,0,1,0-7.68A2.83,2.83,0,0,1,123.94,148.64Zm-1.5,5.31q0,3.51,1.5,3.51t1.46-3.69q0-3.45-1.48-3.45T122.43,154Z"/><path class="cls-9" d="M44.59,169v1.73H41.35V173h.34a3.56,3.56,0,0,1,1.7.41,3,3,0,0,1,1.19,1.14,3.2,3.2,0,0,1,.43,1.65,3.06,3.06,0,0,1-1,2.35,3.59,3.59,0,0,1-2.55.9,5.2,5.2,0,0,1-2.49-.58V177.1a4.19,4.19,0,0,0,2.19.7,2.07,2.07,0,0,0,1.37-.46,1.45,1.45,0,0,0,.55-1.16,1.43,1.43,0,0,0-.63-1.23,2.93,2.93,0,0,0-1.71-.44,5.53,5.53,0,0,0-1.14.13V169Z"/><path class="cls-9" d="M50,168.9a2.81,2.81,0,0,1,2.46,1.4,6.94,6.94,0,0,1,.91,3.82,7.14,7.14,0,0,1-.9,3.86A2.78,2.78,0,0,1,50,179.39a2.85,2.85,0,0,1-2.5-1.4,8.5,8.5,0,0,1,0-7.68A2.83,2.83,0,0,1,50,168.9Zm-1.5,5.31q0,3.51,1.5,3.51T51.48,174q0-3.45-1.48-3.45T48.52,174.21Z"/><path class="cls-9" d="M60.27,168.9v6h.87v1.5h-.87v2.89H58.4v-2.89H54.22v-1.2l5-6.27ZM58.35,172l-2.26,2.86H58.4V172Z"/><path class="cls-9" d="M169,108.37V118.6H167.1V108.37Z"/><path class="cls-9" d="M180.14,108.24a2.81,2.81,0,0,1,2.46,1.4,6.94,6.94,0,0,1,.91,3.82,7.14,7.14,0,0,1-.9,3.86,2.78,2.78,0,0,1-2.46,1.41,2.85,2.85,0,0,1-2.5-1.4,8.5,8.5,0,0,1,0-7.68A2.83,2.83,0,0,1,180.14,108.24Zm-1.5,5.31q0,3.51,1.5,3.51t1.46-3.69q0-3.45-1.48-3.45T178.64,113.55Z"/><path class="cls-9" d="M189,108.37V118.6H187.1V108.37Z"/><path class="cls-9" d="M198.48,108.24a14.51,14.51,0,0,0-3.23,4.35,3,3,0,0,1,1.17-.24,2.7,2.7,0,0,1,2.45,1.5,3.42,3.42,0,0,1,.36,1.57,3.38,3.38,0,0,1-.42,1.68,3.12,3.12,0,0,1-1.17,1.2,3.17,3.17,0,0,1-1.63.44,3.14,3.14,0,0,1-2.42-1,3.71,3.71,0,0,1-.93-2.62,7.42,7.42,0,0,1,1-3.43,13.53,13.53,0,0,1,2.63-3.43Zm-3.92,7.18a1.72,1.72,0,0,0,.4,1.17,1.3,1.3,0,0,0,1,.46,1.26,1.26,0,0,0,1-.44,1.69,1.69,0,0,0,.38-1.15,1.63,1.63,0,0,0-.39-1.12,1.37,1.37,0,0,0-2,0A1.54,1.54,0,0,0,194.56,115.42Z"/><path class="cls-9" d="M235.35,67.07V77.3h-1.87V67.07Z"/><path class="cls-9" d="M245.87,66.94a3.53,3.53,0,0,1,2.29.71,2.29,2.29,0,0,1,.87,1.87,2.5,2.5,0,0,1-1.43,2.34,2.34,2.34,0,0,1,1.24,1,2.9,2.9,0,0,1,.42,1.58,2.79,2.79,0,0,1-1,2.2,3.65,3.65,0,0,1-2.5.84,5.07,5.07,0,0,1-2.35-.58v-1.8a5.36,5.36,0,0,0,1.14.6,3.11,3.11,0,0,0,1.06.19,1.71,1.71,0,0,0,1.18-.41,1.35,1.35,0,0,0,.46-1.06,1.42,1.42,0,0,0-.51-1.15,2.07,2.07,0,0,0-1.38-.43h-.12V71.21h.09a2,2,0,0,0,1.28-.36,1.18,1.18,0,0,0,.46-1,1.2,1.2,0,0,0-.45-1,1.73,1.73,0,0,0-1.14-.37,4.16,4.16,0,0,0-1.82.46v-1.6A5.06,5.06,0,0,1,245.87,66.94Z"/><path class="cls-9" d="M255.35,67.07V77.3h-1.87V67.07Z"/><path class="cls-9" d="M265.94,67.07v.06l-4.12,10.31-1.73-.64,3.23-8h-4.08V67.07Z"/><path class="cls-9" d="M301,32.43V42.67H299.1V32.43Z"/><path class="cls-9" d="M314.65,32.3a11.74,11.74,0,0,0-1.81,2,11.8,11.8,0,0,0-1.42,2.34,3,3,0,0,1,1.17-.24,2.69,2.69,0,0,1,1.44.4,2.72,2.72,0,0,1,1,1.11,3.43,3.43,0,0,1,.36,1.57,3.38,3.38,0,0,1-.42,1.68,3.12,3.12,0,0,1-1.17,1.2,3.17,3.17,0,0,1-1.63.44,3.14,3.14,0,0,1-2.42-1,3.72,3.72,0,0,1-.93-2.62,7.42,7.42,0,0,1,1-3.43,13.54,13.54,0,0,1,2.63-3.43Zm-3.92,7.18a1.73,1.73,0,0,0,.4,1.17,1.3,1.3,0,0,0,1,.46,1.26,1.26,0,0,0,1-.44,1.69,1.69,0,0,0,.38-1.15,1.62,1.62,0,0,0-.39-1.12,1.37,1.37,0,0,0-2,0A1.54,1.54,0,0,0,310.73,39.49Z"/><path class="cls-9" d="M322.4,32.3v6h.87v1.5h-.87v2.89h-1.87V39.77h-4.18v-1.2l5-6.27Zm-1.92,3.11-2.26,2.86h2.31V35.41Z"/><path class="cls-9" d="M327.45,32.3a3.19,3.19,0,0,1,2.32.83,2.94,2.94,0,0,1,.86,2.22,5,5,0,0,1-.64,2.29,22.25,22.25,0,0,1-2.25,3.26h3.51v1.77h-6.63v-.21q1.16-1.43,2-2.57T327.89,38a7.54,7.54,0,0,0,.64-1.28,3.19,3.19,0,0,0,.19-1.09,1.66,1.66,0,0,0-.45-1.18,1.45,1.45,0,0,0-1.1-.48,3.46,3.46,0,0,0-2.4,1.32v-2A4.45,4.45,0,0,1,327.45,32.3Z"/><path class="cls-9" d="M367,12.14V22.37H365.1V12.14Z"/><path class="cls-9" d="M378.14,12a3.17,3.17,0,0,1,2.24.8,2.68,2.68,0,0,1,.87,2.07A2.45,2.45,0,0,1,380,17a2.72,2.72,0,0,1,1.14,1,2.86,2.86,0,0,1,.35,1.44,2.81,2.81,0,0,1-.43,1.54,2.91,2.91,0,0,1-1.2,1.07,3.79,3.79,0,0,1-1.71.38,3.52,3.52,0,0,1-2.41-.83,2.73,2.73,0,0,1-.95-2.15,2.76,2.76,0,0,1,.37-1.48,2.83,2.83,0,0,1,1.13-1A2.47,2.47,0,0,1,375,14.86a2.65,2.65,0,0,1,.88-2.05A3.21,3.21,0,0,1,378.14,12Zm-1.46,7.43a1.69,1.69,0,0,0,.4,1.19,1.37,1.37,0,0,0,1.06.43,1.33,1.33,0,0,0,1.05-.44,1.68,1.68,0,0,0,.38-1.15,1.75,1.75,0,0,0-.4-1.18,1.29,1.29,0,0,0-1-.46,1.39,1.39,0,0,0-1.07.44A1.66,1.66,0,0,0,376.69,19.43Zm.21-4.53a1.63,1.63,0,0,0,.35,1.08,1.11,1.11,0,0,0,.89.42A1.08,1.08,0,0,0,379,16a1.64,1.64,0,0,0,.35-1.07,1.57,1.57,0,0,0-.33-1.05,1.12,1.12,0,0,0-.9-.39,1.15,1.15,0,0,0-.91.38A1.55,1.55,0,0,0,376.9,14.9Z"/><path class="cls-9" d="M385.42,12a3.53,3.53,0,0,1,2.29.71,2.29,2.29,0,0,1,.87,1.87,2.5,2.5,0,0,1-1.43,2.34,2.34,2.34,0,0,1,1.24,1,2.91,2.91,0,0,1,.42,1.58,2.79,2.79,0,0,1-1,2.2,3.65,3.65,0,0,1-2.5.84,5.07,5.07,0,0,1-2.35-.58v-1.8a5.31,5.31,0,0,0,1.14.6,3.1,3.1,0,0,0,1.06.19,1.7,1.7,0,0,0,1.18-.41,1.35,1.35,0,0,0,.46-1.06,1.43,1.43,0,0,0-.51-1.15,2.07,2.07,0,0,0-1.38-.43h-.12V16.29h.09a2,2,0,0,0,1.28-.36,1.18,1.18,0,0,0,.46-1,1.21,1.21,0,0,0-.45-1,1.73,1.73,0,0,0-1.14-.37,4.16,4.16,0,0,0-1.82.46v-1.6A5.06,5.06,0,0,1,385.42,12Z"/><path class="cls-9" d="M394.89,12.14V22.37H393V12.14Z"/><path class="cls-10" d="M152.25,258h59.5V157.8c-20.66,8.18-40.68,15-59.5,20.6Zm-66,0h59.5V180.32c-21.92,6.35-42.06,11.12-59.5,14.68Zm-66,0h59.5V196.29c-36.46,7.1-59.5,8.71-59.5,8.71Zm330-175.83V258h59.5V31A505.85,505.85,0,0,1,350.25,82.2ZM218.25,258h59.5V127.5c-20,10.59-40,19.76-59.5,27.69Zm66,0h59.5V86.92a578.47,578.47,0,0,1-59.5,37.1Z"/><path class="cls-11" d="M284.25,258h59.5V226.09a287.62,287.62,0,0,1-59.5,15.38Zm66-34.44V258h59.5V193.45A370.3,370.3,0,0,1,350.25,223.59ZM20.25,258h59.5V224.78a324.93,324.93,0,0,0-59.5,8.15Zm198-16.89V258h59.5V242.31A215.06,215.06,0,0,1,218.25,241.14Zm-132-16.62V258h59.5V227.19A398.33,398.33,0,0,0,86.25,224.52Zm66,3.5v30h59.5V239.95c-3.36-.67-6.72-1.42-10.08-2.28A433.41,433.41,0,0,0,152.25,228Z"/><path class="cls-12" d="M284.25,258h59.5V223.57a492.65,492.65,0,0,0-59.5,7Zm-66-15.29V258h59.5V231.76q-7.87,1.48-16.08,3.24C246.67,238.23,232.19,240.77,218.25,242.74ZM20.25,258h59.5V245a388.67,388.67,0,0,1-59.5-11.5Zm66-12.35V258h59.5v-9.67A510.25,510.25,0,0,1,86.25,245.68Zm264-22.41V258h59.5V226.16A324,324,0,0,0,350.25,223.28ZM152.25,258h59.5V243.62a568.75,568.75,0,0,1-59.5,4.62Z"/></g></g></svg>