<svg xmlns="http://www.w3.org/2000/svg" xmlns:xlink="http://www.w3.org/1999/xlink" width="73" height="73" viewBox="0 0 73 73">
    <defs>
        <path id="a" d="M36.5 0H0v73h73V0H36.5z"/>
    </defs>
    <g fill="none" fill-rule="evenodd">
        <path fill="#1DE9B6" d="M37.482 34.941v.514h-1.015v-1.123h1.015v.513a.267.267 0 0 0 0 .096zm-6.895-4.575l-.001-.012.001.012zm2.322 8.073a.334.334 0 0 1 .355-.306l-.355.306zm11.407 2.27c1.7.79 2.609 2.13 3.093 3.722.495 1.634.549 3.544.541 5.402v.404c0 .371-.153.707-.397.95a1.335 1.335 0 0 1-.952.397h-19.58a1.34 1.34 0 0 1-.951-.394l-.003-.003a1.34 1.34 0 0 1-.393-.95v-.4c0-.014 0-.023-.003-.034-.006-1.847.05-3.746.543-5.372.484-1.592 1.393-2.934 3.092-3.722.172-.08.348-.152.526-.215-.028.151-.047.31-.07.486-.072.555-.167 1.306-.608 2.53a.336.336 0 0 0 .474.42l3.394-1.89 3.399 8.183a.338.338 0 0 0 .623 0l3.4-8.183 3.392 1.89a.337.337 0 0 0 .48-.408c-.445-1.232-.542-1.984-.615-2.543-.025-.199-.047-.376-.079-.542.237.078.468.166.694.272zm-2.995-1.468a.327.327 0 0 1 .235.042l.03.006c.495.087.996.176 1.492.296a.335.335 0 0 1 .188.048 7.79 7.79 0 0 1 1.33.463c1.906.885 2.919 2.375 3.454 4.14.521 1.721.578 3.688.571 5.6h.002v.401c0 .556-.227 1.061-.593 1.428a2.014 2.014 0 0 1-1.429.593h-19.58c-.555 0-1.06-.226-1.427-.593h-.001l-.004-.004A2.02 2.02 0 0 1 25 50.237v-.4l.002-.033c-.007-1.899.051-3.855.57-5.568h-.001c.535-1.763 1.549-3.255 3.455-4.14a7.746 7.746 0 0 1 1.158-.419.36.36 0 0 1 .147-.038c.564-.148 1.138-.25 1.706-.35l.268-.048.02-.003a.687.687 0 0 0 .385-.246.979.979 0 0 0 .198-.545l.001-.008.066-1.557a7.19 7.19 0 0 1-.267-.34c-.257-.04-.5-.088-.727-.136a9.05 9.05 0 0 1-.731-.19.333.333 0 0 1-.195-.157c-3.844-6.242-3.038-10.687-1.051-13.456l-.001-.002a9.325 9.325 0 0 1 2.755-2.532c.971-.583 1.917-.899 2.603-.956.605-.052 1.054.1 1.237.441.905-.634 2.023-.704 3.152-.313 1.009.348 2.028 1.07 2.899 2.086.863 1.003 1.586 2.301 2.016 3.81.858 3.016.548 6.894-2.155 11.008a.338.338 0 0 1-.192.14c-.218.06-.461.117-.728.17a15.44 15.44 0 0 1-.698.118c-.08.105-.162.211-.246.311l.068 1.563a.959.959 0 0 0 .201.545c.104.131.243.22.402.25h.004zm-7.443 1.454a.863.863 0 0 1 .296.195c.083.083.151.187.205.305l2.126 4.657a.339.339 0 0 0 .446.167.337.337 0 0 0 .168-.173v.002l2.116-4.86a.703.703 0 0 1 .183-.252.936.936 0 0 1 .311-.184l1.644-.617.097.017c.464.082.935.166 1.395.274.096.241.129.502.17.837.058.453.133 1.028.378 1.861L40.44 41.27a.334.334 0 0 0-.456.13l-.017.034-3.235 7.783-3.234-7.783a.335.335 0 0 0-.492-.155l-2.954 1.645c.243-.832.318-1.408.376-1.859.041-.317.074-.566.154-.795a21.252 21.252 0 0 1 1.514-.308l1.782.733zm7.791-7.05l-.061.185-.002.004c-.155.416-.334.814-.531 1.19a8.684 8.684 0 0 1-.642 1.04h.002-.002c-.115.16-.236.313-.357.457a.279.279 0 0 0-.048.055l-.06.067a5.742 5.742 0 0 1-.474.475c-.008.006-.016.014-.026.02a4.529 4.529 0 0 1-1.299.833 3.51 3.51 0 0 1-1.359.278c-.657 0-1.291-.193-1.882-.54-.621-.367-1.193-.909-1.694-1.586a.3.3 0 0 0-.036-.048l-.024-.03-.004-.01c-.524-.73-.962-1.606-1.29-2.586a13.05 13.05 0 0 1-.625-3.168 9.644 9.644 0 0 1 .003-.721c.006-.108.015-.23.028-.365.011-.14.023-.255.036-.35.292-2.258 1.611-3.606 2.506-4.398.505.8 1.258 1.305 2.131 1.652.966.384 2.065.566 3.126.74.869.146 1.709.286 2.331.532.541.212.913.508.968.97.016.301.024.59.024.894-.039 1.521-.389 2.934-1.201 3.915-.665.803-1.653 1.327-3.059 1.397v-.553a.334.334 0 0 0-.332-.337h-1.681a.338.338 0 0 0-.336.337v1.8c0 .184.152.335.336.335h1.681a.334.334 0 0 0 .332-.336v-.57c1.594-.073 2.734-.664 3.521-1.578zm1.374-3.35c-.007.093-.018.205-.029.331a.22.22 0 0 1-.009.067 18.052 18.052 0 0 1-.512 2.548c-.079.28-.163.554-.253.817a.166.166 0 0 1-.015.033 10.793 10.793 0 0 1-.817 1.712l.054-.01c.198-.039.385-.08.56-.125 2.511-3.884 2.798-7.52 1.994-10.347-.402-1.413-1.075-2.623-1.878-3.558-.794-.926-1.709-1.578-2.605-1.888-.929-.32-1.836-.27-2.553.233-.058.041-.107.086-.147.121a.569.569 0 0 1-.258.167c-.301.081-.439-.042-.566-.513-.025-.094-.25-.128-.593-.099-.596.05-1.435.335-2.313.861a8.634 8.634 0 0 0-2.553 2.35c-1.843 2.57-2.577 6.72 1.018 12.615.166.048.352.094.555.137l.066.014a10.884 10.884 0 0 1-.946-2.098 13.69 13.69 0 0 1-.656-3.297l-.001-.025c-.006-.136-.008-.273-.006-.41a8.379 8.379 0 0 1 .076-1.17c.359-2.775 2.09-4.27 3.021-5.076l.008-.005v-.002h.003l.003-.003a.336.336 0 0 1 .531.102c.406.845 1.124 1.356 1.983 1.696.897.357 1.961.533 2.987.704.91.151 1.788.296 2.472.567.757.298 1.284.746 1.386 1.49l.006.051a16.44 16.44 0 0 1-.013 2.01zM33.03 39.62l1.104.454a1.558 1.558 0 0 1 .856.843l1.813 3.971 1.816-4.168c.083-.192.202-.352.348-.485.148-.134.326-.236.525-.313l1.015-.38a1.084 1.084 0 0 1-.12-.133 1.62 1.62 0 0 1-.342-.92v-.006l-.042-.918-.085.077-.023.02a5.283 5.283 0 0 1-1.468.93 4.195 4.195 0 0 1-1.617.33c-.779 0-1.531-.224-2.224-.634a5.756 5.756 0 0 1-.966-.726l-.04.905-.001.021a1.629 1.629 0 0 1-.345.921 1.456 1.456 0 0 1-.204.211z"/>
        <path stroke="#1DE9B6" stroke-width=".25" d="M37.482 34.941v.514h-1.015v-1.123h1.015v.513a.267.267 0 0 0 0 .096zm-6.895-4.575l-.001-.012.001.012zm2.322 8.073a.334.334 0 0 1 .355-.306l-.355.306zm11.407 2.27c1.7.79 2.609 2.13 3.093 3.722.495 1.634.549 3.544.541 5.402v.404c0 .371-.153.707-.397.95a1.335 1.335 0 0 1-.952.397h-19.58a1.34 1.34 0 0 1-.951-.394l-.003-.003a1.34 1.34 0 0 1-.393-.95v-.4c0-.014 0-.023-.003-.034-.006-1.847.05-3.746.543-5.372.484-1.592 1.393-2.934 3.092-3.722.172-.08.348-.152.526-.215-.028.151-.047.31-.07.486-.072.555-.167 1.306-.608 2.53a.336.336 0 0 0 .474.42l3.394-1.89 3.399 8.183a.338.338 0 0 0 .623 0l3.4-8.183 3.392 1.89a.337.337 0 0 0 .48-.408c-.445-1.232-.542-1.984-.615-2.543-.025-.199-.047-.376-.079-.542.237.078.468.166.694.272zm-2.995-1.468a.327.327 0 0 1 .235.042l.03.006c.495.087.996.176 1.492.296a.335.335 0 0 1 .188.048 7.79 7.79 0 0 1 1.33.463c1.906.885 2.919 2.375 3.454 4.14.521 1.721.578 3.688.571 5.6h.002v.401c0 .556-.227 1.061-.593 1.428a2.014 2.014 0 0 1-1.429.593h-19.58c-.555 0-1.06-.226-1.427-.593h-.001l-.004-.004A2.02 2.02 0 0 1 25 50.237v-.4l.002-.033c-.007-1.899.051-3.855.57-5.568h-.001c.535-1.763 1.549-3.255 3.455-4.14a7.746 7.746 0 0 1 1.158-.419.36.36 0 0 1 .147-.038c.564-.148 1.138-.25 1.706-.35l.268-.048.02-.003a.687.687 0 0 0 .385-.246.979.979 0 0 0 .198-.545l.001-.008.066-1.557a7.19 7.19 0 0 1-.267-.34c-.257-.04-.5-.088-.727-.136a9.05 9.05 0 0 1-.731-.19.333.333 0 0 1-.195-.157c-3.844-6.242-3.038-10.687-1.051-13.456l-.001-.002a9.325 9.325 0 0 1 2.755-2.532c.971-.583 1.917-.899 2.603-.956.605-.052 1.054.1 1.237.441.905-.634 2.023-.704 3.152-.313 1.009.348 2.028 1.07 2.899 2.086.863 1.003 1.586 2.301 2.016 3.81.858 3.016.548 6.894-2.155 11.008a.338.338 0 0 1-.192.14c-.218.06-.461.117-.728.17a15.44 15.44 0 0 1-.698.118c-.08.105-.162.211-.246.311l.068 1.563a.959.959 0 0 0 .201.545c.104.131.243.22.402.25h.004zm-7.443 1.454a.863.863 0 0 1 .296.195c.083.083.151.187.205.305l2.126 4.657a.339.339 0 0 0 .446.167.337.337 0 0 0 .168-.173v.002l2.116-4.86a.703.703 0 0 1 .183-.252.936.936 0 0 1 .311-.184l1.644-.617.097.017c.464.082.935.166 1.395.274.096.241.129.502.17.837.058.453.133 1.028.378 1.861L40.44 41.27a.334.334 0 0 0-.456.13l-.017.034-3.235 7.783-3.234-7.783a.335.335 0 0 0-.492-.155l-2.954 1.645c.243-.832.318-1.408.376-1.859.041-.317.074-.566.154-.795a21.252 21.252 0 0 1 1.514-.308l1.782.733zm7.791-7.05l-.061.185-.002.004c-.155.416-.334.814-.531 1.19a8.684 8.684 0 0 1-.642 1.04h.002-.002c-.115.16-.236.313-.357.457a.279.279 0 0 0-.048.055l-.06.067a5.742 5.742 0 0 1-.474.475c-.008.006-.016.014-.026.02a4.529 4.529 0 0 1-1.299.833 3.51 3.51 0 0 1-1.359.278c-.657 0-1.291-.193-1.882-.54-.621-.367-1.193-.909-1.694-1.586a.3.3 0 0 0-.036-.048l-.024-.03-.004-.01c-.524-.73-.962-1.606-1.29-2.586a13.05 13.05 0 0 1-.625-3.168 9.644 9.644 0 0 1 .003-.721c.006-.108.015-.23.028-.365.011-.14.023-.255.036-.35.292-2.258 1.611-3.606 2.506-4.398.505.8 1.258 1.305 2.131 1.652.966.384 2.065.566 3.126.74.869.146 1.709.286 2.331.532.541.212.913.508.968.97.016.301.024.59.024.894-.039 1.521-.389 2.934-1.201 3.915-.665.803-1.653 1.327-3.059 1.397v-.553a.334.334 0 0 0-.332-.337h-1.681a.338.338 0 0 0-.336.337v1.8c0 .184.152.335.336.335h1.681a.334.334 0 0 0 .332-.336v-.57c1.594-.073 2.734-.664 3.521-1.578zm1.374-3.35c-.007.093-.018.205-.029.331a.22.22 0 0 1-.009.067 18.052 18.052 0 0 1-.512 2.548c-.079.28-.163.554-.253.817a.166.166 0 0 1-.015.033 10.793 10.793 0 0 1-.817 1.712l.054-.01c.198-.039.385-.08.56-.125 2.511-3.884 2.798-7.52 1.994-10.347-.402-1.413-1.075-2.623-1.878-3.558-.794-.926-1.709-1.578-2.605-1.888-.929-.32-1.836-.27-2.553.233-.058.041-.107.086-.147.121a.569.569 0 0 1-.258.167c-.301.081-.439-.042-.566-.513-.025-.094-.25-.128-.593-.099-.596.05-1.435.335-2.313.861a8.634 8.634 0 0 0-2.553 2.35c-1.843 2.57-2.577 6.72 1.018 12.615.166.048.352.094.555.137l.066.014a10.884 10.884 0 0 1-.946-2.098 13.69 13.69 0 0 1-.656-3.297l-.001-.025c-.006-.136-.008-.273-.006-.41a8.379 8.379 0 0 1 .076-1.17c.359-2.775 2.09-4.27 3.021-5.076l.008-.005v-.002h.003l.003-.003a.336.336 0 0 1 .531.102c.406.845 1.124 1.356 1.983 1.696.897.357 1.961.533 2.987.704.91.151 1.788.296 2.472.567.757.298 1.284.746 1.386 1.49l.006.051a16.44 16.44 0 0 1-.013 2.01zM33.03 39.62l1.104.454a1.558 1.558 0 0 1 .856.843l1.813 3.971 1.816-4.168c.083-.192.202-.352.348-.485.148-.134.326-.236.525-.313l1.015-.38a1.084 1.084 0 0 1-.12-.133 1.62 1.62 0 0 1-.342-.92v-.006l-.042-.918-.085.077-.023.02a5.283 5.283 0 0 1-1.468.93 4.195 4.195 0 0 1-1.617.33c-.779 0-1.531-.224-2.224-.634a5.756 5.756 0 0 1-.966-.726l-.04.905-.001.021a1.629 1.629 0 0 1-.345.921 1.456 1.456 0 0 1-.204.211z"/>
        <g>
            <mask id="b" fill="#fff">
                <use xlink:href="#a"/>
            </mask>
            <path fill="#1DE9B6" d="M36.5 0C16.342 0 0 16.342 0 36.5S16.342 73 36.5 73C56.659 73 73 56.658 73 36.5S56.659 0 36.5 0m0 1C56.075 1 72 16.925 72 36.5S56.075 72 36.5 72C16.926 72 1 56.075 1 36.5S16.926 1 36.5 1" mask="url(#b)"/>
        </g>
    </g>
</svg>
