<svg xmlns="http://www.w3.org/2000/svg" width="73" height="73" viewBox="0 0 73 73">
    <g fill="none" fill-rule="evenodd">
        <path fill="#1DE9B6" d="M36.5 0C16.342 0 0 16.342 0 36.5S16.342 73 36.5 73C56.659 73 73 56.658 73 36.5S56.659 0 36.5 0m0 1C56.075 1 72 16.926 72 36.5 72 56.075 56.075 72 36.5 72S1 56.075 1 36.5C1 16.926 16.925 1 36.5 1"/>
        <path stroke="#1DE9B6" stroke-linecap="round" stroke-linejoin="round" stroke-width=".9" d="M23.895 48.205c0-.58.851-9.706.851-9.706l6.15-4.023"/>
        <path stroke="#1DE9B6" stroke-linecap="round" stroke-linejoin="round" stroke-width=".9" d="M30.895 34.476l.619 7.541 3.596-3.132zM34.26 42.481l-1.47 5.724M46.325 48.205c0-.58-.85-9.706-.85-9.706l-6.15-4.023"/>
        <path stroke="#1DE9B6" stroke-linecap="round" stroke-linejoin="round" stroke-width=".9" d="M39.326 34.476l-.62 7.541-3.595-3.132zM35.11 38.886l-1.917 1.67 1.066 1.926h1.702l1.066-1.926zM35.96 42.481l1.47 5.724M39.326 44.583h3.287M39.583 28.16c0-3.033-2.003-5.492-4.473-5.492-2.47 0-4.473 2.459-4.473 5.492 0 3.032 2.003 5.491 4.473 5.491 2.47 0 4.473-2.459 4.473-5.491zM45.374 38.586l4.132-2.703M52.34 38.846l-2.833-2.963M60.11 46.254c0-.39-.804-7.668-.804-7.668l-4.132-2.703M55.173 35.883l-2.833 2.963v5.737M55.347 31.637c0-2.038-1.346-3.69-3.006-3.69-1.661 0-3.007 1.652-3.007 3.69 0 2.038 1.346 3.69 3.007 3.69 1.66 0 3.006-1.651 3.006-3.69zM24.847 38.586l-4.133-2.703M17.88 38.846l2.833-2.963M10.11 46.254c0-.39.805-7.668.805-7.668l4.132-2.703M15.047 35.883l2.833 2.963v5.737M14.874 31.637c0-2.038 1.346-3.69 3.006-3.69 1.66 0 3.007 1.652 3.007 3.69 0 2.038-1.346 3.69-3.007 3.69-1.66 0-3.006-1.651-3.006-3.69z"/>
    </g>
</svg>
