<svg xmlns="http://www.w3.org/2000/svg" xmlns:xlink="http://www.w3.org/1999/xlink" width="73" height="73" viewBox="0 0 73 73">
    <defs>
        <path id="a" d="M0 36.5V0h73v73H0z"/>
    </defs>
    <g fill="none" fill-rule="evenodd">
        <g>
            <mask id="b" fill="#fff">
                <use xlink:href="#a"/>
            </mask>
            <path fill="#1DE9B6" d="M36.5 0C16.342 0 0 16.342 0 36.5 0 56.659 16.342 73 36.5 73S73 56.659 73 36.5C73 16.342 56.658 0 36.5 0m0 1C56.075 1 72 16.926 72 36.5 72 56.075 56.075 72 36.5 72S1 56.075 1 36.5C1 16.926 16.925 1 36.5 1" mask="url(#b)"/>
        </g>
        <path fill="#1DE9B6" d="M24.463 37.454a12.6 12.6 0 0 0 2.689 7.793c.187.237.268.526.246.807-.02.282-.145.556-.367.761l-.838.781a1.14 1.14 0 0 1-.405.248h-.001a1.158 1.158 0 0 1-.463.061h-.008a1.136 1.136 0 0 1-.458-.13 1.097 1.097 0 0 1-.366-.306A16.04 16.04 0 0 1 21 37.452a16.052 16.052 0 0 1 3.501-10.014 1.21 1.21 0 0 1 .366-.307c.14-.073.292-.115.458-.128a1.147 1.147 0 0 1 .879.311l.835.78a1.165 1.165 0 0 1 .12 1.571 12.58 12.58 0 0 0-2.696 7.79m18.972.008a7.879 7.879 0 0 1-1.358 4.428.508.508 0 0 0-.084.342c.015.115.07.225.163.31l.736.66a.487.487 0 0 0 .168.104l.011.003a.49.49 0 0 0 .211.017.527.527 0 0 0 .201-.063.515.515 0 0 0 .151-.144 9.863 9.863 0 0 0 1.779-5.657 9.866 9.866 0 0 0-1.774-5.658.495.495 0 0 0-.14-.138l-.014-.008a.507.507 0 0 0-.199-.063.493.493 0 0 0-.197.013l-.012.003a.495.495 0 0 0-.18.11l-.736.66a.5.5 0 0 0-.081.651 7.877 7.877 0 0 1 1.355 4.43m-1.906 4.057a1.155 1.155 0 0 0 .184 1.516l.734.661c.12.11.257.19.406.238l.016.006c.155.05.318.066.487.046.169-.019.327-.07.463-.152.139-.083.258-.195.358-.336a10.523 10.523 0 0 0 1.899-6.036 10.515 10.515 0 0 0-1.893-6.036 1.151 1.151 0 0 0-.339-.325l-.017-.01a1.158 1.158 0 0 0-.466-.156 1.219 1.219 0 0 0-.467.04l-.018.006c-.156.05-.297.131-.424.244l-.735.661a1.16 1.16 0 0 0-.185 1.516 7.216 7.216 0 0 1 1.241 4.06 7.207 7.207 0 0 1-1.244 4.057m7.243-4.056a13.25 13.25 0 0 1-2.836 8.202.495.495 0 0 0 .051.674l.835.78a.525.525 0 0 0 .163.104l.012.004a.521.521 0 0 0 .4-.03.482.482 0 0 0 .144-.116l.012-.016a15.368 15.368 0 0 0 3.358-9.6 15.384 15.384 0 0 0-3.349-9.605.475.475 0 0 0-.352-.186.494.494 0 0 0-.203.025v-.002l-.002.002a.498.498 0 0 0-.174.108l-.836.78a.499.499 0 0 0-.053.673 13.247 13.247 0 0 1 2.83 8.203m-3.358 7.791a12.58 12.58 0 0 0 2.695-7.79 12.583 12.583 0 0 0-2.688-7.793 1.157 1.157 0 0 1-.245-.808c.02-.28.144-.556.367-.762l.837-.78c.121-.112.257-.196.405-.249.15-.052.308-.073.472-.059.166.011.319.054.459.127.139.075.262.177.366.308a16.034 16.034 0 0 1 3.49 10.016 16.033 16.033 0 0 1-3.519 10.038 1.126 1.126 0 0 1-.805.411 1.162 1.162 0 0 1-.472-.06l-.019-.008a1.16 1.16 0 0 1-.387-.242l-.835-.78a1.158 1.158 0 0 1-.121-1.569m-6.274-4.997a4.031 4.031 0 0 1-2.863 1.183 4.027 4.027 0 0 1-2.862-1.187 4.031 4.031 0 0 1-1.183-2.862h-.002.002a4.046 4.046 0 0 1 6.912-2.858 4.03 4.03 0 0 1 1.182 2.862c0 1.118-.453 2.13-1.186 2.862m-2.863.521a3.364 3.364 0 0 0 2.395-.992 3.367 3.367 0 0 0 .993-2.39 3.389 3.389 0 0 0-3.385-3.389v.002-.002c-.934 0-1.781.38-2.394.993a3.369 3.369 0 0 0-.993 2.391h.002-.002c0 .934.378 1.781.992 2.395a3.374 3.374 0 0 0 2.392.992M29.8 37.456c0 1.418.413 2.837 1.242 4.058.163.243.225.524.193.794a1.165 1.165 0 0 1-.379.723l-.735.661a1.187 1.187 0 0 1-.423.244 1.183 1.183 0 0 1-.951-.11h.001a1.143 1.143 0 0 1-.357-.334 10.517 10.517 0 0 1-1.893-6.037c0-2.108.63-4.215 1.885-6.017l.014-.02c.097-.14.216-.253.357-.335.138-.082.293-.133.462-.153h.003c.167-.019.33-.002.486.045.153.05.295.133.422.245l.734.663a1.16 1.16 0 0 1 .185 1.515 7.215 7.215 0 0 0-1.246 4.058m.692 4.43a7.899 7.899 0 0 1-1.354-4.43 7.883 7.883 0 0 1 1.359-4.429.498.498 0 0 0-.08-.652l-.735-.659a.48.48 0 0 0-.181-.11.49.49 0 0 0-.209-.016.477.477 0 0 0-.353.21l-.012.013a9.874 9.874 0 0 0-1.768 5.642c0 1.982.592 3.965 1.776 5.658a.471.471 0 0 0 .152.144v.001h.001a.488.488 0 0 0 .198.064.502.502 0 0 0 .211-.018.458.458 0 0 0 .18-.107l.736-.659.014-.013a.498.498 0 0 0 .065-.64m-3.861 3.771a13.24 13.24 0 0 1-2.829-8.202 13.243 13.243 0 0 1 2.835-8.202.497.497 0 0 0-.05-.673l-.835-.78a.508.508 0 0 0-.175-.109.486.486 0 0 0-.204-.024.495.495 0 0 0-.197.053.507.507 0 0 0-.158.132h.002a15.38 15.38 0 0 0-3.357 9.601c0 3.4 1.114 6.801 3.347 9.604a.506.506 0 0 0 .355.187h.006a.478.478 0 0 0 .372-.134l.836-.779a.496.496 0 0 0 .052-.674"/>
        <path stroke="#1DE9B6" stroke-width=".25" d="M24.463 37.454a12.6 12.6 0 0 0 2.689 7.793c.187.237.268.526.246.807-.02.282-.145.556-.367.761l-.838.781a1.14 1.14 0 0 1-.405.248h-.001a1.158 1.158 0 0 1-.463.061h-.008a1.136 1.136 0 0 1-.458-.13 1.097 1.097 0 0 1-.366-.306A16.04 16.04 0 0 1 21 37.452a16.052 16.052 0 0 1 3.501-10.014 1.21 1.21 0 0 1 .366-.307c.14-.073.292-.115.458-.128a1.147 1.147 0 0 1 .879.311l.835.78a1.165 1.165 0 0 1 .12 1.571 12.58 12.58 0 0 0-2.696 7.79zm18.972.01a7.879 7.879 0 0 1-1.358 4.427.508.508 0 0 0-.084.342c.015.115.07.225.163.31l.736.66a.487.487 0 0 0 .168.104l.011.003a.49.49 0 0 0 .211.017.527.527 0 0 0 .201-.063.515.515 0 0 0 .151-.144 9.863 9.863 0 0 0 1.779-5.657 9.866 9.866 0 0 0-1.774-5.658.495.495 0 0 0-.14-.138l-.014-.008a.507.507 0 0 0-.199-.063.493.493 0 0 0-.197.013l-.012.003a.495.495 0 0 0-.18.11l-.736.66a.5.5 0 0 0-.081.651 7.877 7.877 0 0 1 1.355 4.43zm-1.906 4.056a1.155 1.155 0 0 0 .184 1.516l.734.661c.12.11.257.19.406.238l.016.006c.155.05.318.066.487.046.169-.019.327-.07.463-.152.139-.083.258-.195.358-.336a10.523 10.523 0 0 0 1.899-6.036 10.515 10.515 0 0 0-1.893-6.036 1.151 1.151 0 0 0-.339-.325l-.017-.01a1.158 1.158 0 0 0-.466-.156 1.219 1.219 0 0 0-.467.04l-.018.006c-.156.05-.297.131-.424.244l-.735.661a1.16 1.16 0 0 0-.185 1.516 7.216 7.216 0 0 1 1.241 4.06 7.207 7.207 0 0 1-1.244 4.057zm7.243-4.056a13.25 13.25 0 0 1-2.836 8.202.495.495 0 0 0 .051.674l.835.78a.525.525 0 0 0 .163.104l.012.004a.521.521 0 0 0 .4-.03.482.482 0 0 0 .144-.116l.012-.016a15.368 15.368 0 0 0 3.358-9.6 15.384 15.384 0 0 0-3.349-9.605.475.475 0 0 0-.352-.186.494.494 0 0 0-.203.025v-.002l-.002.002a.498.498 0 0 0-.174.108l-.836.78a.499.499 0 0 0-.053.673 13.247 13.247 0 0 1 2.83 8.203zm-3.358 7.791a12.58 12.58 0 0 0 2.695-7.79 12.583 12.583 0 0 0-2.688-7.793 1.157 1.157 0 0 1-.245-.808c.02-.28.144-.556.367-.762l.837-.78c.121-.112.257-.196.405-.249.15-.052.308-.073.472-.059.166.011.319.054.459.127.139.075.262.177.366.308a16.034 16.034 0 0 1 3.49 10.016 16.033 16.033 0 0 1-3.519 10.038 1.126 1.126 0 0 1-.805.411 1.162 1.162 0 0 1-.472-.06l-.019-.008a1.16 1.16 0 0 1-.387-.242l-.835-.78a1.158 1.158 0 0 1-.121-1.569zm-6.274-4.997a4.031 4.031 0 0 1-2.863 1.183 4.027 4.027 0 0 1-2.862-1.187 4.031 4.031 0 0 1-1.183-2.862h-.002.002a4.046 4.046 0 0 1 6.912-2.858 4.03 4.03 0 0 1 1.182 2.862c0 1.118-.453 2.13-1.186 2.862zm-2.863.521a3.364 3.364 0 0 0 2.395-.992 3.367 3.367 0 0 0 .993-2.39 3.389 3.389 0 0 0-3.385-3.389v.002-.002c-.934 0-1.781.38-2.394.993a3.369 3.369 0 0 0-.993 2.391h.002-.002c0 .934.378 1.781.992 2.395a3.374 3.374 0 0 0 2.392.992zM29.8 37.456c0 1.418.413 2.837 1.242 4.058.163.243.225.524.193.794a1.165 1.165 0 0 1-.379.723l-.735.661a1.187 1.187 0 0 1-.423.244 1.183 1.183 0 0 1-.951-.11h.001a1.143 1.143 0 0 1-.357-.334 10.517 10.517 0 0 1-1.893-6.037c0-2.108.63-4.215 1.885-6.017l.014-.02c.097-.14.216-.253.357-.335.138-.082.293-.133.462-.153h.003c.167-.019.33-.002.486.045.153.05.295.133.422.245l.734.663a1.16 1.16 0 0 1 .185 1.515 7.215 7.215 0 0 0-1.246 4.058zm.692 4.43a7.899 7.899 0 0 1-1.354-4.43 7.883 7.883 0 0 1 1.359-4.429.498.498 0 0 0-.08-.652l-.735-.659a.48.48 0 0 0-.181-.11.49.49 0 0 0-.209-.016.477.477 0 0 0-.353.21l-.012.013a9.874 9.874 0 0 0-1.768 5.642c0 1.982.592 3.965 1.776 5.658a.471.471 0 0 0 .152.144v.001h.001a.488.488 0 0 0 .198.064.502.502 0 0 0 .211-.018.458.458 0 0 0 .18-.107l.736-.659.014-.013a.498.498 0 0 0 .065-.64zm-3.861 3.77a13.24 13.24 0 0 1-2.829-8.202 13.243 13.243 0 0 1 2.835-8.202.497.497 0 0 0-.05-.673l-.835-.78a.508.508 0 0 0-.175-.109.486.486 0 0 0-.204-.024.495.495 0 0 0-.197.053.507.507 0 0 0-.158.132h.002a15.38 15.38 0 0 0-3.357 9.601c0 3.4 1.114 6.801 3.347 9.604a.506.506 0 0 0 .355.187h.006a.478.478 0 0 0 .372-.134l.836-.779a.496.496 0 0 0 .052-.674z"/>
    </g>
</svg>
