<svg xmlns="http://www.w3.org/2000/svg" xmlns:xlink="http://www.w3.org/1999/xlink" width="73" height="73" viewBox="0 0 73 73">
    <defs>
        <path id="a" d="M0 0v73h73V0H0z"/>
    </defs>
    <g fill="none" fill-rule="evenodd">
        <path fill="#1DE9B6" d="M51.158 23.678H20.842a.509.509 0 0 0-.359.149h-.001a.504.504 0 0 0-.149.358v20.088h31.334V24.185a.509.509 0 0 0-.509-.507zM30.297 46.104h11.178a.34.34 0 0 0 0-.678H30.297a.338.338 0 1 0 0 .678zm-8.25-3.46h27.907V25.307H22.047v17.337zm-.339-18.016a.34.34 0 0 0-.338.34v18.016c0 .186.151.338.338.338h28.584a.34.34 0 0 0 .34-.338V24.968a.341.341 0 0 0-.34-.34H21.708zM52.004 44.95H18.185a.505.505 0 0 0-.358.15l-.013.012a.504.504 0 0 0-.137.346v.728c0 .14.058.266.149.36.092.09.218.148.359.148h35.63a.52.52 0 0 0 .36-.148l-.001-.002a.508.508 0 0 0 .149-.358v-.728a.512.512 0 0 0-.508-.508h-1.811zM20.842 23h30.316a1.184 1.184 0 0 1 1.186 1.185v20.088h1.471A1.185 1.185 0 0 1 55 45.458v.728c0 .326-.133.624-.347.838l-.002-.001-.001.001c-.213.215-.51.347-.835.347h-35.63c-.325 0-.622-.132-.836-.347l-.002-.001a1.19 1.19 0 0 1-.347-.837v-.728c0-.314.126-.602.328-.815l.019-.022c.215-.215.512-.348.838-.348h1.47V24.185c0-.324.134-.62.35-.834v-.003c.214-.215.51-.348.837-.348z"/>
        <path stroke="#1DE9B6" stroke-width=".25" d="M51.158 23.678H20.842a.509.509 0 0 0-.359.149h-.001a.504.504 0 0 0-.149.358v20.088h31.334V24.185a.509.509 0 0 0-.509-.507zM30.297 46.104h11.178a.34.34 0 0 0 0-.678H30.297a.338.338 0 1 0 0 .678zm-8.25-3.46h27.907V25.307H22.047v17.337zm-.339-18.016a.34.34 0 0 0-.338.34v18.016c0 .186.151.338.338.338h28.584a.34.34 0 0 0 .34-.338V24.968a.341.341 0 0 0-.34-.34H21.708zM52.004 44.95H18.185a.505.505 0 0 0-.358.15l-.013.012a.504.504 0 0 0-.137.346v.728c0 .14.058.266.149.36.092.09.218.148.359.148h35.63a.52.52 0 0 0 .36-.148l-.001-.002a.508.508 0 0 0 .149-.358v-.728a.512.512 0 0 0-.508-.508h-1.811zM20.842 23h30.316a1.184 1.184 0 0 1 1.186 1.185v20.088h1.471A1.185 1.185 0 0 1 55 45.458v.728c0 .326-.133.624-.347.838l-.002-.001-.001.001c-.213.215-.51.347-.835.347h-35.63c-.325 0-.622-.132-.836-.347l-.002-.001a1.19 1.19 0 0 1-.347-.837v-.728c0-.314.126-.602.328-.815l.019-.022c.215-.215.512-.348.838-.348h1.47V24.185c0-.324.134-.62.35-.834v-.003c.214-.215.51-.348.837-.348z"/>
        <g>
            <mask id="b" fill="#fff">
                <use xlink:href="#a"/>
            </mask>
            <path fill="#1DE9B6" d="M36.5 0C16.342 0 0 16.342 0 36.5S16.342 73 36.5 73C56.659 73 73 56.658 73 36.5S56.659 0 36.5 0m0 1C56.075 1 72 16.925 72 36.5 72 56.074 56.075 72 36.5 72 16.926 72 1 56.074 1 36.5 1 16.925 16.926 1 36.5 1" mask="url(#b)"/>
        </g>
    </g>
</svg>
