<svg xmlns="http://www.w3.org/2000/svg" xmlns:xlink="http://www.w3.org/1999/xlink" width="73" height="73" viewBox="0 0 73 73">
    <defs>
        <path id="a" d="M0 0v73h73V0z"/>
    </defs>
    <g fill="none" fill-rule="evenodd" opacity=".9">
        <g>
            <mask id="b" fill="#fff">
                <use xlink:href="#a"/>
            </mask>
            <path fill="#1DE9B6" d="M36.5 0C16.342 0 0 16.342 0 36.5S16.342 73 36.5 73C56.659 73 73 56.658 73 36.5S56.659 0 36.5 0m0 1C56.075 1 72 16.925 72 36.5 72 56.074 56.075 72 36.5 72 16.926 72 1 56.074 1 36.5 1 16.925 16.926 1 36.5 1" mask="url(#b)"/>
        </g>
        <path fill="#1DE9B6" d="M23.664 37.752l.002-.332h-1.28l-.003.305-.001.827c.003 2.62.129 4.631.771 6.233.6 1.492 1.663 2.653 3.522 3.663l.513-1.251c-1.489-.909-2.361-1.973-2.869-3.339-.524-1.409-.645-3.12-.655-5.305a53.466 53.466 0 0 1 0-.801zm25.193 7.423a2.818 2.818 0 0 1 1.491 2.491c0 .782-.317 1.489-.83 2.001a2.81 2.81 0 0 1-2 .83c-.78 0-1.489-.317-2-.83a2.82 2.82 0 0 1-.829-2.001 2.822 2.822 0 0 1 1.49-2.491v-1.818a4.524 4.524 0 0 0-2.168 1.475 4.487 4.487 0 0 0-1.001 2.834c0 1.247.505 2.374 1.32 3.189a4.492 4.492 0 0 0 3.188 1.32 4.49 4.49 0 0 0 3.188-1.32 4.492 4.492 0 0 0 1.321-3.189 4.517 4.517 0 0 0-3.17-4.309v1.818zm-1.28.319H47.541l-.008-.001H47.504l-.007.001H47.437l-.002.002h-.019l-.007.001h-.021l-.007.001h-.017l-.005.002a2.111 2.111 0 0 0-.714.177h-.001l-.002.002h-.004l-.003.002a2.165 2.165 0 0 0-1.29 1.985c0 .602.244 1.144.636 1.536a2.167 2.167 0 0 0 3.073 0c.394-.392.636-.934.636-1.536 0-.6-.242-1.143-.636-1.535a2.092 2.092 0 0 0-.648-.447l-.003-.002-.002-.001-.002-.002h-.005l-.001-.002h-.002l-.001-.001-.003-.002a2.14 2.14 0 0 0-.666-.17l-.007-.002h-.001l-.013-.001h-.008l-.006-.001h-.008l-.006-.002h-.015l-.008-.001H47.628l-.007-.001H47.603l-.004-.002h-.022zM32.23 26.042c.168.002.334.008.5.019v-.001h-.002c0-1.948.79-3.711 2.066-4.988a7.038 7.038 0 0 1 4.987-2.065c1.949 0 3.713.79 4.988 2.065a7.023 7.023 0 0 1 2.067 4.988v18.86c.14-.035.286-.06.434-.072l.041-.003h.004l.004-.001h.005l.02-.001.008-.002h.009l.019-.001h.009l.01-.001h.064l.01-.001h.091l.01.001h.064l.01.001h.009l.019.001h.009l.008.002.016.001H47.718l.004.001h.004l.042.003c.146.012.292.037.432.072V26.157a.34.34 0 0 1-.014-.097c0-2.321-.94-4.422-2.461-5.942a8.385 8.385 0 0 0-5.944-2.462 8.374 8.374 0 0 0-5.94 2.462 8.367 8.367 0 0 0-2.463 5.942v.001c.167-.011.335-.017.504-.019h.008l.007-.001h.039l.009-.001H32.159l.008.001h.04l.008.001h.015zm-.04.656h-.015l-.098-.002H32.026l-.096.002h-.016a10.364 10.364 0 0 0-7.213 3.043 10.372 10.372 0 0 0-3.039 7.023h2.702a7.677 7.677 0 0 1 2.248-5.113 7.675 7.675 0 0 1 5.441-2.253 7.67 7.67 0 0 1 5.438 2.253 7.666 7.666 0 0 1 2.246 5.113H42.44a10.354 10.354 0 0 0-3.039-7.023 10.36 10.36 0 0 0-7.211-3.043zm-4.282 20.468a.097.097 0 0 1-.013.031l-.873 2.126 1.692.695c.333.137.694.125 1.007-.005a1.31 1.31 0 0 0 .71-.71l.001-.003a1.315 1.315 0 0 0-.006-1.007 1.314 1.314 0 0 0-.712-.71l-1.691-.694-.115.277zm13.833-9.746H40.46l.002.342c.001.258.002.541 0 .791-.01 2.185-.131 3.896-.656 5.305-.505 1.366-1.379 2.43-2.868 3.339l.513 1.251c1.859-1.01 2.923-2.171 3.521-3.663.644-1.602.77-3.613.773-6.233 0-.261 0-.558-.003-.824l-.001-.308zm-5.511 9.777l-.012-.031-.115-.277-1.691.694a1.32 1.32 0 0 0-.71 1.738 1.319 1.319 0 0 0 1.709.697l1.692-.695-.873-2.126zm12.627-4.519a5.167 5.167 0 0 1 3.828 4.988 5.15 5.15 0 0 1-1.514 3.653 5.152 5.152 0 0 1-3.653 1.515 5.148 5.148 0 0 1-3.652-1.515 5.146 5.146 0 0 1-1.514-3.653 5.165 5.165 0 0 1 3.827-4.988V26.06a6.374 6.374 0 0 0-1.873-4.523 6.373 6.373 0 0 0-4.525-1.873 6.375 6.375 0 0 0-4.522 1.873 6.374 6.374 0 0 0-1.873 4.523h-.001v.06a11.016 11.016 0 0 1 6.48 3.157c2.001 2 3.237 4.763 3.237 7.815a.328.328 0 0 1-.328.328h-.38l.002.306c.002.265.003.564.003.826-.004 2.7-.138 4.777-.818 6.476-.665 1.656-1.836 2.929-3.88 4.029l.132.321a.33.33 0 0 1-.178.427l-1.993.817-.001.001a1.963 1.963 0 0 1-1.509-.005 1.966 1.966 0 0 1-1.059-1.058l-.004-.011a1.968 1.968 0 0 1 1.074-2.571l1.994-.819a.328.328 0 0 1 .428.177l.1.245c1.3-.812 2.065-1.757 2.509-2.951.491-1.319.604-2.964.615-5.079v-.788l-.003-.343h-.389a.328.328 0 0 1-.329-.328 7.01 7.01 0 0 0-2.061-4.976 7.011 7.011 0 0 0-4.974-2.061 7.009 7.009 0 0 0-4.976 2.061 7.01 7.01 0 0 0-2.061 4.976.329.329 0 0 1-.329.328h-.368l-.002.333v.798c.01 2.115.125 3.76.615 5.079.444 1.194 1.209 2.139 2.508 2.951l.102-.245a.327.327 0 0 1 .427-.177l1.995.819a1.972 1.972 0 0 1 1.062 2.597c-.21.49-.595.852-1.053 1.043a1.96 1.96 0 0 1-1.508.005l-1.993-.818a.327.327 0 0 1-.179-.427l.132-.321c-2.045-1.1-3.214-2.373-3.879-4.029-.682-1.699-.817-3.776-.819-6.476 0-.264 0-.563.002-.83l.003-.302h-.404a.328.328 0 0 1-.328-.328c0-3.052 1.237-5.815 3.237-7.815a11.015 11.015 0 0 1 6.485-3.157v-.06a9.037 9.037 0 0 1 2.653-6.407A9.039 9.039 0 0 1 39.781 17a9.04 9.04 0 0 1 6.408 2.653 9.039 9.039 0 0 1 2.654 6.308.394.394 0 0 1 .014.099v16.618z"/>
        <path stroke="#1DE9B6" stroke-width=".25" d="M23.664 37.752l.002-.332h-1.28l-.003.305-.001.827c.003 2.62.129 4.631.771 6.233.6 1.492 1.663 2.653 3.522 3.663l.513-1.251c-1.489-.909-2.361-1.973-2.869-3.339-.524-1.409-.645-3.12-.655-5.305a53.466 53.466 0 0 1 0-.801zm25.193 7.423a2.818 2.818 0 0 1 1.491 2.491c0 .782-.317 1.489-.83 2.001a2.81 2.81 0 0 1-2 .83c-.78 0-1.489-.317-2-.83a2.82 2.82 0 0 1-.829-2.001 2.822 2.822 0 0 1 1.49-2.491v-1.818a4.524 4.524 0 0 0-2.168 1.475 4.487 4.487 0 0 0-1.001 2.834c0 1.247.505 2.374 1.32 3.189a4.492 4.492 0 0 0 3.188 1.32 4.49 4.49 0 0 0 3.188-1.32 4.492 4.492 0 0 0 1.321-3.189 4.517 4.517 0 0 0-3.17-4.309v1.818zm-1.28.319H47.541l-.008-.001H47.504l-.007.001H47.437l-.002.002h-.019l-.007.001h-.021l-.007.001h-.017l-.005.002a2.111 2.111 0 0 0-.714.177h-.001l-.002.002h-.004l-.003.002a2.165 2.165 0 0 0-1.29 1.985c0 .602.244 1.144.636 1.536a2.167 2.167 0 0 0 3.073 0c.394-.392.636-.934.636-1.536 0-.6-.242-1.143-.636-1.535a2.092 2.092 0 0 0-.648-.447l-.003-.002-.002-.001-.002-.002h-.005l-.001-.002h-.002l-.001-.001-.003-.002a2.14 2.14 0 0 0-.666-.17l-.007-.002h-.001l-.013-.001h-.008l-.006-.001h-.008l-.006-.002h-.015l-.008-.001H47.628l-.007-.001H47.603l-.004-.002h-.022zM32.23 26.042c.168.002.334.008.5.019v-.001h-.002c0-1.948.79-3.711 2.066-4.988a7.038 7.038 0 0 1 4.987-2.065c1.949 0 3.713.79 4.988 2.065a7.023 7.023 0 0 1 2.067 4.988v18.86c.14-.035.286-.06.434-.072l.041-.003h.004l.004-.001h.005l.02-.001.008-.002h.009l.019-.001h.009l.01-.001h.064l.01-.001h.091l.01.001h.064l.01.001h.009l.019.001h.009l.008.002.016.001H47.718l.004.001h.004l.042.003c.146.012.292.037.432.072V26.157a.34.34 0 0 1-.014-.097c0-2.321-.94-4.422-2.461-5.942a8.385 8.385 0 0 0-5.944-2.462 8.374 8.374 0 0 0-5.94 2.462 8.367 8.367 0 0 0-2.463 5.942v.001c.167-.011.335-.017.504-.019h.008l.007-.001h.039l.009-.001H32.159l.008.001h.04l.008.001h.015zm-.04.656h-.015l-.098-.002H32.026l-.096.002h-.016a10.364 10.364 0 0 0-7.213 3.043 10.372 10.372 0 0 0-3.039 7.023h2.702a7.677 7.677 0 0 1 2.248-5.113 7.675 7.675 0 0 1 5.441-2.253 7.67 7.67 0 0 1 5.438 2.253 7.666 7.666 0 0 1 2.246 5.113H42.44a10.354 10.354 0 0 0-3.039-7.023 10.36 10.36 0 0 0-7.211-3.043zm-4.282 20.468a.097.097 0 0 1-.013.031l-.873 2.126 1.692.695c.333.137.694.125 1.007-.005a1.31 1.31 0 0 0 .71-.71l.001-.003a1.315 1.315 0 0 0-.006-1.007 1.314 1.314 0 0 0-.712-.71l-1.691-.694-.115.277zm13.833-9.746H40.46l.002.342c.001.258.002.541 0 .791-.01 2.185-.131 3.896-.656 5.305-.505 1.366-1.379 2.43-2.868 3.339l.513 1.251c1.859-1.01 2.923-2.171 3.521-3.663.644-1.602.77-3.613.773-6.233 0-.261 0-.558-.003-.824l-.001-.308zm-5.511 9.777l-.012-.031-.115-.277-1.691.694a1.32 1.32 0 0 0-.71 1.738 1.319 1.319 0 0 0 1.709.697l1.692-.695-.873-2.126zm12.627-4.519a5.167 5.167 0 0 1 3.828 4.988 5.15 5.15 0 0 1-1.514 3.653 5.152 5.152 0 0 1-3.653 1.515 5.148 5.148 0 0 1-3.652-1.515 5.146 5.146 0 0 1-1.514-3.653 5.165 5.165 0 0 1 3.827-4.988V26.06a6.374 6.374 0 0 0-1.873-4.523 6.373 6.373 0 0 0-4.525-1.873 6.375 6.375 0 0 0-4.522 1.873 6.374 6.374 0 0 0-1.873 4.523h-.001v.06a11.016 11.016 0 0 1 6.48 3.157c2.001 2 3.237 4.763 3.237 7.815a.328.328 0 0 1-.328.328h-.38l.002.306c.002.265.003.564.003.826-.004 2.7-.138 4.777-.818 6.476-.665 1.656-1.836 2.929-3.88 4.029l.132.321a.33.33 0 0 1-.178.427l-1.993.817-.001.001a1.963 1.963 0 0 1-1.509-.005 1.966 1.966 0 0 1-1.059-1.058l-.004-.011a1.968 1.968 0 0 1 1.074-2.571l1.994-.819a.328.328 0 0 1 .428.177l.1.245c1.3-.812 2.065-1.757 2.509-2.951.491-1.319.604-2.964.615-5.079v-.788l-.003-.343h-.389a.328.328 0 0 1-.329-.328 7.01 7.01 0 0 0-2.061-4.976 7.011 7.011 0 0 0-4.974-2.061 7.009 7.009 0 0 0-4.976 2.061 7.01 7.01 0 0 0-2.061 4.976.329.329 0 0 1-.329.328h-.368l-.002.333v.798c.01 2.115.125 3.76.615 5.079.444 1.194 1.209 2.139 2.508 2.951l.102-.245a.327.327 0 0 1 .427-.177l1.995.819a1.972 1.972 0 0 1 1.062 2.597c-.21.49-.595.852-1.053 1.043a1.96 1.96 0 0 1-1.508.005l-1.993-.818a.327.327 0 0 1-.179-.427l.132-.321c-2.045-1.1-3.214-2.373-3.879-4.029-.682-1.699-.817-3.776-.819-6.476 0-.264 0-.563.002-.83l.003-.302h-.404a.328.328 0 0 1-.328-.328c0-3.052 1.237-5.815 3.237-7.815a11.015 11.015 0 0 1 6.485-3.157v-.06a9.037 9.037 0 0 1 2.653-6.407A9.039 9.039 0 0 1 39.781 17a9.04 9.04 0 0 1 6.408 2.653 9.039 9.039 0 0 1 2.654 6.308.394.394 0 0 1 .014.099v16.618z"/>
    </g>
</svg>
