<svg xmlns="http://www.w3.org/2000/svg" width="73" height="73" viewBox="0 0 73 73">
    <g fill="none" fill-rule="evenodd">
        <path fill="#1DE9B6" d="M36.304 25.955h.853v-.852h-.853v.852zm13.147 18.08H24.009v-5.259h-.852v6.111h27.148v-6.111h-.854v5.259zm2.105 5.259h-1.251v-3.156H23.157v3.156h-1.251V38.676a3.258 3.258 0 0 1 3.254-3.256H48.3a3.26 3.26 0 0 1 3.256 3.256v10.618zm-27.547 0h25.442v-2.303H24.009v2.303zm.525-22.188a3.258 3.258 0 0 1 3.255-3.255h17.882a3.258 3.258 0 0 1 3.255 3.255v7.513l-.112-.014a4.213 4.213 0 0 0-.514-.036H25.16c-.154 0-.317.012-.513.036l-.113.014v-7.513zm27.874 22.188V38.676a4.091 4.091 0 0 0-2.568-3.804l-.061-.026v-7.74A4.111 4.111 0 0 0 45.671 23H27.789a4.11 4.11 0 0 0-4.107 4.106v7.74l-.062.026a4.093 4.093 0 0 0-2.568 3.804v10.618H20v.853h33.46v-.853h-1.052zM38.407 25.955h.853v-.852h-.853v.852zm-.199 5.359c0-1.215.989-2.204 2.203-2.204h4.208c1.215 0 2.204.989 2.204 2.204v2.003h.852v-2.003a3.059 3.059 0 0 0-3.056-3.056h-4.208a3.059 3.059 0 0 0-3.055 3.056v2.003h.852v-2.003zm-11.57 0c0-1.215.988-2.204 2.204-2.204h4.207c1.215 0 2.203.989 2.203 2.204v2.003h.853v-2.003a3.059 3.059 0 0 0-3.056-3.056h-4.207a3.06 3.06 0 0 0-3.057 3.056v2.003h.853v-2.003zm7.562-5.359h.853v-.852H34.2v.852z"/>
        <path stroke="#1DE9B6" stroke-width=".25" d="M36.304 25.955h.853v-.852h-.853v.852zm13.147 18.08H24.009v-5.259h-.852v6.111h27.148v-6.111h-.854v5.259zm2.105 5.259h-1.251v-3.156H23.157v3.156h-1.251V38.676a3.258 3.258 0 0 1 3.254-3.256H48.3a3.26 3.26 0 0 1 3.256 3.256v10.618zm-27.547 0h25.442v-2.303H24.009v2.303zm.525-22.188a3.258 3.258 0 0 1 3.255-3.255h17.882a3.258 3.258 0 0 1 3.255 3.255v7.513l-.112-.014a4.213 4.213 0 0 0-.514-.036H25.16c-.154 0-.317.012-.513.036l-.113.014v-7.513zm27.874 22.188V38.676a4.091 4.091 0 0 0-2.568-3.804l-.061-.026v-7.74A4.111 4.111 0 0 0 45.671 23H27.789a4.11 4.11 0 0 0-4.107 4.106v7.74l-.062.026a4.093 4.093 0 0 0-2.568 3.804v10.618H20v.853h33.46v-.853h-1.052zM38.407 25.955h.853v-.852h-.853v.852zm-.199 5.359c0-1.215.989-2.204 2.203-2.204h4.208c1.215 0 2.204.989 2.204 2.204v2.003h.852v-2.003a3.059 3.059 0 0 0-3.056-3.056h-4.208a3.059 3.059 0 0 0-3.055 3.056v2.003h.852v-2.003zm-11.57 0c0-1.215.988-2.204 2.204-2.204h4.207c1.215 0 2.203.989 2.203 2.204v2.003h.853v-2.003a3.059 3.059 0 0 0-3.056-3.056h-4.207a3.06 3.06 0 0 0-3.057 3.056v2.003h.853v-2.003zm7.562-5.359h.853v-.852H34.2v.852z"/>
        <path fill="#1DE9B6" d="M36.5 0C16.342 0 0 16.342 0 36.5 0 56.659 16.342 73 36.5 73S73 56.659 73 36.5C73 16.342 56.658 0 36.5 0m0 1C56.075 1 72 16.926 72 36.5 72 56.075 56.075 72 36.5 72 16.926 72 1 56.075 1 36.5 1 16.926 16.926 1 36.5 1"/>
    </g>
</svg>
