<svg xmlns="http://www.w3.org/2000/svg" xmlns:xlink="http://www.w3.org/1999/xlink" width="73" height="73" viewBox="0 0 73 73">
    <defs>
        <path id="a" d="M0 36.5V0h73v73H0z"/>
    </defs>
    <g fill="none" fill-rule="evenodd">
        <path fill="#1DE9B6" d="M35.256 26.673l-5.865-2.935-11.26 5.632 5.864 2.933 11.261-5.63zm7.426 14.974l-5.865-2.933 11.26-5.631 5.866 2.934-11.26 5.63zm5.395-9.344l5.866-2.933-11.26-5.632-5.866 2.935 11.26 5.63zm-12.39 5.846l-10.91-5.456 10.91-5.456v10.912zm.698-10.913v10.913l10.913-5.456-10.913-5.457zm12.73 11.974v6.053a2.074 2.074 0 0 1-1.163 1.879L36.975 52.63a2.1 2.1 0 0 1-.939.229c-.317 0-.634-.077-.94-.23L24.12 47.143a2.093 2.093 0 0 1-.853-.771 2.089 2.089 0 0 1-.31-1.108V39.21l-5.763-2.882a.348.348 0 0 1 0-.624l6.021-3.011-6.02-3.01a.349.349 0 0 1 0-.626l12.041-6.02a.341.341 0 0 1 .311 0l6.49 3.244 6.491-3.243a.341.341 0 0 1 .311 0l12.042 6.019a.35.35 0 0 1 0 .626l-6.02 3.01 6.02 3.01a.35.35 0 0 1 0 .624l-5.765 2.883zm-12.73.068v12.834c.094-.025.187-.06.278-.104l10.978-5.49a1.43 1.43 0 0 0 .572-.514c.13-.213.202-.466.202-.741V39.56l-5.577 2.79a.347.347 0 0 1-.31 0l-6.143-3.072zm-.698 12.834a1.571 1.571 0 0 1-.279-.104l-10.976-5.49a1.405 1.405 0 0 1-.572-.514 1.405 1.405 0 0 1-.203-.741V39.56l5.578 2.79a.347.347 0 0 0 .311 0l6.14-3.072.001 12.834zM18.13 36.017l11.261 5.63 5.865-2.933-11.263-5.631-5.863 2.934z"/>
        <path stroke="#1DE9B6" stroke-width=".25" d="M35.256 26.673l-5.865-2.935-11.26 5.632 5.864 2.933 11.261-5.63zm7.426 14.974l-5.865-2.933 11.26-5.631 5.866 2.934-11.26 5.63zm5.395-9.344l5.866-2.933-11.26-5.632-5.866 2.935 11.26 5.63zm-12.39 5.846l-10.91-5.456 10.91-5.456v10.912zm.698-10.913v10.913l10.913-5.456-10.913-5.457zm12.73 11.974v6.053a2.074 2.074 0 0 1-1.163 1.879L36.975 52.63a2.1 2.1 0 0 1-.939.229c-.317 0-.634-.077-.94-.23L24.12 47.143a2.093 2.093 0 0 1-.853-.771 2.089 2.089 0 0 1-.31-1.108V39.21l-5.763-2.882a.348.348 0 0 1 0-.624l6.021-3.011-6.02-3.01a.349.349 0 0 1 0-.626l12.041-6.02a.341.341 0 0 1 .311 0l6.49 3.244 6.491-3.243a.341.341 0 0 1 .311 0l12.042 6.019a.35.35 0 0 1 0 .626l-6.02 3.01 6.02 3.01a.35.35 0 0 1 0 .624l-5.765 2.883zm-12.73.068v12.834c.094-.025.187-.06.278-.104l10.978-5.49a1.43 1.43 0 0 0 .572-.514c.13-.213.202-.466.202-.741V39.56l-5.577 2.79a.347.347 0 0 1-.31 0l-6.143-3.072zm-.698 12.834a1.571 1.571 0 0 1-.279-.104l-10.976-5.49a1.405 1.405 0 0 1-.572-.514 1.405 1.405 0 0 1-.203-.741V39.56l5.578 2.79a.347.347 0 0 0 .311 0l6.14-3.072.001 12.834zM18.13 36.017l11.261 5.63 5.865-2.933-11.263-5.631-5.863 2.934z"/>
        <g>
            <mask id="b" fill="#fff">
                <use xlink:href="#a"/>
            </mask>
            <path fill="#1DE9B6" d="M36.5 0C16.342 0 0 16.342 0 36.5S16.342 73 36.5 73 73 56.658 73 36.5 56.658 0 36.5 0m0 1C56.075 1 72 16.926 72 36.5 72 56.075 56.075 72 36.5 72S1 56.075 1 36.5C1 16.926 16.925 1 36.5 1" mask="url(#b)"/>
        </g>
    </g>
</svg>
