<svg xmlns="http://www.w3.org/2000/svg" xmlns:xlink="http://www.w3.org/1999/xlink" width="73" height="73" viewBox="0 0 73 73">
    <defs>
        <path id="a" d="M36.5 0H0v73h73V0H36.5z"/>
    </defs>
    <g fill="none" fill-rule="evenodd">
        <path fill="#1DE9B6" d="M45.028 29.611h-4.027v6.16h7.51l-2.959-5.813a.663.663 0 0 0-.227-.264.554.554 0 0 0-.297-.083zm.652-1.855H21.875c-.417 0-.796.168-1.07.442v.001a1.507 1.507 0 0 0-.442 1.069v11.425c0 .208-.17.378-.378.378h-.23v2.122c0 .416.17.794.444 1.068.273.274.652.444 1.068.444h.721a5.065 5.065 0 0 1 1.62-2.85 5.04 5.04 0 0 1 3.356-1.274 5.04 5.04 0 0 1 3.356 1.274 5.065 5.065 0 0 1 1.62 2.85h11.792a5.054 5.054 0 0 1 1.62-2.85 5.037 5.037 0 0 1 3.354-1.274c1.287 0 2.463.481 3.357 1.274a5.065 5.065 0 0 1 1.62 2.85h.619c.157 0 .3-.065.403-.166a.578.578 0 0 0 .166-.401v-3.067h-.229a.38.38 0 0 1-.379-.378v-2.391a1.5 1.5 0 0 0-1.274-1.493l-1.817-.289v-.001a.375.375 0 0 1-.277-.203l-3.831-7.663a1.669 1.669 0 0 0-.582-.668 1.484 1.484 0 0 0-.802-.229zM21.875 27c-.622 0-1.188.253-1.597.661l-.005.004-.001.001a2.265 2.265 0 0 0-.666 1.602v11.046h-.229a.378.378 0 0 0-.377.379v2.5c0 .624.256 1.192.666 1.603.41.411.976.665 1.601.665h1.045a.379.379 0 0 0 .376-.334 4.295 4.295 0 0 1 1.419-2.708 4.284 4.284 0 0 1 2.857-1.082 4.3 4.3 0 0 1 4.275 3.775.38.38 0 0 0 .377.349h12.44a.377.377 0 0 0 .374-.334 4.297 4.297 0 0 1 1.42-2.708 4.28 4.28 0 0 1 2.856-1.082c1.098 0 2.099.407 2.858 1.082a4.296 4.296 0 0 1 1.418 2.693.378.378 0 0 0 .377.349h.943a1.321 1.321 0 0 0 1.324-1.323v-3.445a.377.377 0 0 0-.376-.379h-.231v-2.012a2.26 2.26 0 0 0-1.911-2.238l-1.627-.257-3.742-7.492a2.438 2.438 0 0 0-.849-.964A2.227 2.227 0 0 0 45.68 27H21.875zm2.667 16.221a3.417 3.417 0 0 1 4.822-.022l.022.022a3.415 3.415 0 0 1 1.005 2.422 3.41 3.41 0 0 1-1.005 2.423 3.416 3.416 0 0 1-4.821.022l-.023-.022a3.415 3.415 0 0 1-1.004-2.423c0-.944.384-1.802 1.004-2.422zm2.422-.248c.73 0 1.389.291 1.871.764l.016.018c.485.483.783 1.151.783 1.888 0 .738-.298 1.405-.783 1.889a2.653 2.653 0 0 1-1.887.782 2.662 2.662 0 0 1-1.87-.763l-.017-.019a2.658 2.658 0 0 1-.784-1.889c0-.737.299-1.405.784-1.888h-.002.002a2.65 2.65 0 0 1 1.887-.782zm19.321.248a3.419 3.419 0 0 1 4.823-.022l.022.022a3.419 3.419 0 0 1 0 4.845 3.417 3.417 0 0 1-2.422 1.005 3.416 3.416 0 0 1-2.423-1.005 3.422 3.422 0 0 1-1.003-2.423c0-.944.384-1.802 1.003-2.422zm2.423-.248c.728 0 1.389.291 1.871.764l.016.018c.485.483.784 1.151.784 1.888 0 .738-.299 1.405-.784 1.889a2.656 2.656 0 0 1-1.887.782 2.656 2.656 0 0 1-1.889-.782h-.002a2.668 2.668 0 0 1-.78-1.889c0-.737.299-1.405.782-1.888a2.657 2.657 0 0 1 1.889-.782zm-1.325 1.351a1.869 1.869 0 0 1 2.621-.023l.023.023c.338.338.547.806.547 1.322a1.865 1.865 0 0 1-1.869 1.87c-.504 0-.962-.201-1.299-.526l-.023-.021a1.866 1.866 0 0 1 0-2.645zm1.322.208c-.309 0-.587.123-.786.325h-.001.001a1.11 1.11 0 0 0 0 1.577l.014.019c.201.191.473.306.772.306.307 0 .587-.125.788-.325a1.116 1.116 0 0 0 0-1.577l-.017-.016a1.102 1.102 0 0 0-.771-.309zm-23.064-.208a1.868 1.868 0 0 1 3.193 1.322c0 .503-.202.96-.525 1.298l-.022.025a1.873 1.873 0 0 1-2.646 0l.001-.002a1.863 1.863 0 0 1-.021-2.619l.02-.024zm1.323.208c-.308 0-.587.125-.788.325l-.017.019a1.111 1.111 0 0 0 .015 1.558h.002a1.115 1.115 0 0 0 1.576 0l.017-.016a1.113 1.113 0 0 0-.805-1.886zm4.873-8.012a.379.379 0 0 1 0 .756h-9.918a.378.378 0 0 1 0-.756h9.918zm8.785-7.667h4.406c.262 0 .499.076.704.207.209.132.375.324.494.556l3.237 6.36a.38.38 0 0 1-.336.55h-8.505a.378.378 0 0 1-.377-.379v-6.915c0-.208.169-.379.377-.379z"/>
        <path stroke="#1DE9B6" stroke-width=".25" d="M45.028 29.611h-4.027v6.16h7.51l-2.959-5.813a.663.663 0 0 0-.227-.264.554.554 0 0 0-.297-.083zm.652-1.855H21.875c-.417 0-.796.168-1.07.442v.001a1.507 1.507 0 0 0-.442 1.069v11.425c0 .208-.17.378-.378.378h-.23v2.122c0 .416.17.794.444 1.068.273.274.652.444 1.068.444h.721a5.065 5.065 0 0 1 1.62-2.85 5.04 5.04 0 0 1 3.356-1.274 5.04 5.04 0 0 1 3.356 1.274 5.065 5.065 0 0 1 1.62 2.85h11.792a5.054 5.054 0 0 1 1.62-2.85 5.037 5.037 0 0 1 3.354-1.274c1.287 0 2.463.481 3.357 1.274a5.065 5.065 0 0 1 1.62 2.85h.619c.157 0 .3-.065.403-.166a.578.578 0 0 0 .166-.401v-3.067h-.229a.38.38 0 0 1-.379-.378v-2.391a1.5 1.5 0 0 0-1.274-1.493l-1.817-.289v-.001a.375.375 0 0 1-.277-.203l-3.831-7.663a1.669 1.669 0 0 0-.582-.668 1.484 1.484 0 0 0-.802-.229zM21.875 27c-.622 0-1.188.253-1.597.661l-.005.004-.001.001a2.265 2.265 0 0 0-.666 1.602v11.046h-.229a.378.378 0 0 0-.377.379v2.5c0 .624.256 1.192.666 1.603.41.411.976.665 1.601.665h1.045a.379.379 0 0 0 .376-.334 4.295 4.295 0 0 1 1.419-2.708 4.284 4.284 0 0 1 2.857-1.082 4.3 4.3 0 0 1 4.275 3.775.38.38 0 0 0 .377.349h12.44a.377.377 0 0 0 .374-.334 4.297 4.297 0 0 1 1.42-2.708 4.28 4.28 0 0 1 2.856-1.082c1.098 0 2.099.407 2.858 1.082a4.296 4.296 0 0 1 1.418 2.693.378.378 0 0 0 .377.349h.943a1.321 1.321 0 0 0 1.324-1.323v-3.445a.377.377 0 0 0-.376-.379h-.231v-2.012a2.26 2.26 0 0 0-1.911-2.238l-1.627-.257-3.742-7.492a2.438 2.438 0 0 0-.849-.964A2.227 2.227 0 0 0 45.68 27H21.875zm2.667 16.221a3.417 3.417 0 0 1 4.822-.022l.022.022a3.415 3.415 0 0 1 1.005 2.422 3.41 3.41 0 0 1-1.005 2.423 3.416 3.416 0 0 1-4.821.022l-.023-.022a3.415 3.415 0 0 1-1.004-2.423c0-.944.384-1.802 1.004-2.422zm2.422-.248c.73 0 1.389.291 1.871.764l.016.018c.485.483.783 1.151.783 1.888 0 .738-.298 1.405-.783 1.889a2.653 2.653 0 0 1-1.887.782 2.662 2.662 0 0 1-1.87-.763l-.017-.019a2.658 2.658 0 0 1-.784-1.889c0-.737.299-1.405.784-1.888h-.002.002a2.65 2.65 0 0 1 1.887-.782zm19.321.248a3.419 3.419 0 0 1 4.823-.022l.022.022a3.419 3.419 0 0 1 0 4.845 3.417 3.417 0 0 1-2.422 1.005 3.416 3.416 0 0 1-2.423-1.005 3.422 3.422 0 0 1-1.003-2.423c0-.944.384-1.802 1.003-2.422zm2.423-.248c.728 0 1.389.291 1.871.764l.016.018c.485.483.784 1.151.784 1.888 0 .738-.299 1.405-.784 1.889a2.656 2.656 0 0 1-1.887.782 2.656 2.656 0 0 1-1.889-.782h-.002a2.668 2.668 0 0 1-.78-1.889c0-.737.299-1.405.782-1.888a2.657 2.657 0 0 1 1.889-.782zm-1.325 1.351a1.869 1.869 0 0 1 2.621-.023l.023.023c.338.338.547.806.547 1.322a1.865 1.865 0 0 1-1.869 1.87c-.504 0-.962-.201-1.299-.526l-.023-.021a1.866 1.866 0 0 1 0-2.645zm1.322.208c-.309 0-.587.123-.786.325h-.001.001a1.11 1.11 0 0 0 0 1.577l.014.019c.201.191.473.306.772.306.307 0 .587-.125.788-.325a1.116 1.116 0 0 0 0-1.577l-.017-.016a1.102 1.102 0 0 0-.771-.309zm-23.064-.208a1.868 1.868 0 0 1 3.193 1.322c0 .503-.202.96-.525 1.298l-.022.025a1.873 1.873 0 0 1-2.646 0l.001-.002a1.863 1.863 0 0 1-.021-2.619l.02-.024zm1.323.208c-.308 0-.587.125-.788.325l-.017.019a1.111 1.111 0 0 0 .015 1.558h.002a1.115 1.115 0 0 0 1.576 0l.017-.016a1.113 1.113 0 0 0-.805-1.886zm4.873-8.012a.379.379 0 0 1 0 .756h-9.918a.378.378 0 0 1 0-.756h9.918zm8.785-7.667h4.406c.262 0 .499.076.704.207.209.132.375.324.494.556l3.237 6.36a.38.38 0 0 1-.336.55h-8.505a.378.378 0 0 1-.377-.379v-6.915c0-.208.169-.379.377-.379z"/>
        <g>
            <mask id="b" fill="#fff">
                <use xlink:href="#a"/>
            </mask>
            <path fill="#1DE9B6" d="M36.5 0C16.342 0 0 16.342 0 36.5S16.342 73 36.5 73C56.659 73 73 56.658 73 36.5S56.659 0 36.5 0m0 1C56.075 1 72 16.925 72 36.5S56.075 72 36.5 72C16.926 72 1 56.075 1 36.5S16.926 1 36.5 1" mask="url(#b)"/>
        </g>
    </g>
</svg>
