<svg xmlns="http://www.w3.org/2000/svg" xmlns:xlink="http://www.w3.org/1999/xlink" width="73" height="73" viewBox="0 0 73 73">
    <defs>
        <path id="a" d="M36.5 0H0v73h73V0H36.5z"/>
    </defs>
    <g fill="none" fill-rule="evenodd">
        <g>
            <mask id="b" fill="#fff">
                <use xlink:href="#a"/>
            </mask>
            <path fill="#1DE9B6" d="M36.5 0C16.342 0 0 16.342 0 36.5S16.342 73 36.5 73C56.659 73 73 56.658 73 36.5S56.659 0 36.5 0m0 1C56.075 1 72 16.925 72 36.5S56.075 72 36.5 72C16.926 72 1 56.075 1 36.5S16.926 1 36.5 1" mask="url(#b)"/>
        </g>
        <path fill="#1DE9B6" d="M30.08 27.325c.109.21.22.422.329.612.212-.228.458-.436.73-.626l.019-.013c1.394-.959 3.516-1.41 5.606-1.399 2.089.013 4.17.489 5.475 1.389.23.156.435.327.616.513l.837-1.454a3.038 3.038 0 0 0-.211-.19C42.17 25.076 39.49 24.5 36.77 24.49c-2.721-.013-5.462.543-6.896 1.723-.097.079-.188.16-.271.246.162.261.319.562.477.866zm-.659-1.676c1.572-1.287 4.485-1.892 7.352-1.881 2.806.011 5.596.616 7.068 1.752.083-4.492.136-7.928-7.17-7.94H36.588c-7.313.012-7.251 3.455-7.168 7.954l.001.115zm.651 3.106c-.217-.302-.424-.699-.632-1.095.005 1.06.219 2.135.591 3.157.398 1.09.977 2.119 1.67 3.003.196.25.401.488.617.715l.001.001.004.004.015.014a8.124 8.124 0 0 0 1.764 1.415c.813.472 1.672.744 2.528.744.853 0 1.716-.272 2.527-.744.879-.51 1.701-1.256 2.403-2.149a11 11 0 0 0 1.667-3.003 9.296 9.296 0 0 0 .59-3.18v-.015l-.004-.038-.59 1.025a.363.363 0 0 1-.621.012 2.964 2.964 0 0 0-.773-.739c-1.186-.818-3.113-1.249-5.069-1.261-1.955-.011-3.924.4-5.192 1.27l-.019.012a3.444 3.444 0 0 0-.879.859.362.362 0 0 1-.598-.007zm-4.544 23.133c1.327-4.572 1.327-5.983 1.325-10.472v-.438c-.844.355-1.591.764-2.21 1.23-1.202.899-1.919 2.011-1.919 3.329v4.901a1.447 1.447 0 0 0 1.45 1.45h1.354zM32.381 35.6c.431.384.887.72 1.358.994.92.536 1.904.843 2.891.843.986 0 1.97-.307 2.889-.843a8.16 8.16 0 0 0 1.339-.974l.009.141c.062.911.144 2.105.274 2.754-1.553.998-2.91 1.665-4.306 1.749-1.403.083-2.885-.421-4.699-1.766.124-.645.189-1.862.239-2.785l.006-.113zm15.094 17.013H24.174c-.6 0-1.143-.245-1.537-.638A2.16 2.16 0 0 1 22 50.438v-4.901c0-1.568.826-2.871 2.209-3.908 1.469-1.103 3.576-1.905 5.973-2.405l1.234-.805c.117-.526.185-1.796.236-2.742l.041-.749a11.625 11.625 0 0 1-.561-.661 11.725 11.725 0 0 1-1.779-3.204c-.404-1.108-.636-2.275-.636-3.426v-.053c0-.025.004-.049.008-.07a10.971 10.971 0 0 1-.011-.412c0-.602-.008-1.087-.017-1.556-.086-4.691-.151-8.326 6.825-8.666v-.421a.362.362 0 0 1 .283-.367 3.58 3.58 0 0 1 .816-.092c.271 0 .548.027.831.084.18.023.318.175.318.36v.439c6.944.346 6.878 3.981 6.792 8.663-.008.469-.017.954-.017 1.556 0 .04-.001.12-.004.236l-.004.178c.003.024.006.045.006.068v.053c0 1.151-.231 2.318-.635 3.426a11.805 11.805 0 0 1-1.779 3.204c-.192.243-.388.473-.596.694.019.216.037.47.056.752.062.945.149 2.208.273 2.734l1.228.757c2.391.501 4.494 1.309 5.96 2.414 1.381 1.042 2.209 2.35 2.209 3.919h-.002v4.901c0 .6-.245 1.143-.637 1.535l-.001.002a2.168 2.168 0 0 1-1.534.638h-1.61zm-1.058-11.649v.457c-.007 4.49-.009 5.901 1.312 10.467h1.356c.397 0 .761-.162 1.022-.424.264-.262.428-.626.428-1.026v-4.901h-.002c0-1.318-.719-2.436-1.92-3.341-.616-.466-1.358-.878-2.196-1.232zm-2.317-.781c.557.149 1.091.314 1.596.498v.74c-.007 4.504-.01 5.963 1.282 10.467H26.28c1.297-4.507 1.297-5.967 1.293-10.472v-.72a18.637 18.637 0 0 1 1.599-.493l-.005 7.238c0 .2.163.363.362.363l14.206.004c.199 0 .363-.16.363-.359l.002-7.266zm-14.207-.158l.244-.053c.545.901 1.426 1.591 2.44 2.082 1.274.613 2.765.913 4.053.915 1.352 0 2.707-.357 3.855-.913 1.138-.551 2.083-1.304 2.639-2.108.084.019.17.037.254.057l-.003 7.082-13.485-.006.003-7.056zm11.667-.917c-1.661 1.07-3.125 1.784-4.683 1.877-1.572.094-3.202-.448-5.163-1.9l-.908.594c.47.732 1.22 1.306 2.086 1.723 1.173.568 2.55.844 3.738.845 1.237 0 2.481-.329 3.54-.842.974-.471 1.783-1.095 2.276-1.752l-.886-.545zm-4.516-22.249v-.11a3.439 3.439 0 0 0-.423-.028c-.127 0-.254.01-.376.024v.112l.272-.001h.011l.007-.002H36.744l.006.002h.042c.085 0 .169 0 .252.003z"/>
        <path stroke="#1DE9B6" stroke-width=".25" d="M30.08 27.325c.109.21.22.422.329.612.212-.228.458-.436.73-.626l.019-.013c1.394-.959 3.516-1.41 5.606-1.399 2.089.013 4.17.489 5.475 1.389.23.156.435.327.616.513l.837-1.454a3.038 3.038 0 0 0-.211-.19C42.17 25.076 39.49 24.5 36.77 24.49c-2.721-.013-5.462.543-6.896 1.723-.097.079-.188.16-.271.246.162.261.319.562.477.866zm-.659-1.676c1.572-1.287 4.485-1.892 7.352-1.881 2.806.011 5.596.616 7.068 1.752.083-4.492.136-7.928-7.17-7.94H36.588c-7.313.012-7.251 3.455-7.168 7.954l.001.115zm.651 3.106c-.217-.302-.424-.699-.632-1.095.005 1.06.219 2.135.591 3.157.398 1.09.977 2.119 1.67 3.003.196.25.401.488.617.715l.001.001.004.004.015.014a8.124 8.124 0 0 0 1.764 1.415c.813.472 1.672.744 2.528.744.853 0 1.716-.272 2.527-.744.879-.51 1.701-1.256 2.403-2.149a11 11 0 0 0 1.667-3.003 9.296 9.296 0 0 0 .59-3.18v-.015l-.004-.038-.59 1.025a.363.363 0 0 1-.621.012 2.964 2.964 0 0 0-.773-.739c-1.186-.818-3.113-1.249-5.069-1.261-1.955-.011-3.924.4-5.192 1.27l-.019.012a3.444 3.444 0 0 0-.879.859.362.362 0 0 1-.598-.007zm-4.544 23.133c1.327-4.572 1.327-5.983 1.325-10.472v-.438c-.844.355-1.591.764-2.21 1.23-1.202.899-1.919 2.011-1.919 3.329v4.901a1.447 1.447 0 0 0 1.45 1.45h1.354zM32.381 35.6c.431.384.887.72 1.358.994.92.536 1.904.843 2.891.843.986 0 1.97-.307 2.889-.843a8.16 8.16 0 0 0 1.339-.974l.009.141c.062.911.144 2.105.274 2.754-1.553.998-2.91 1.665-4.306 1.749-1.403.083-2.885-.421-4.699-1.766.124-.645.189-1.862.239-2.785l.006-.113zm15.094 17.013H24.174c-.6 0-1.143-.245-1.537-.638A2.16 2.16 0 0 1 22 50.438v-4.901c0-1.568.826-2.871 2.209-3.908 1.469-1.103 3.576-1.905 5.973-2.405l1.234-.805c.117-.526.185-1.796.236-2.742l.041-.749a11.625 11.625 0 0 1-.561-.661 11.725 11.725 0 0 1-1.779-3.204c-.404-1.108-.636-2.275-.636-3.426v-.053c0-.025.004-.049.008-.07a10.971 10.971 0 0 1-.011-.412c0-.602-.008-1.087-.017-1.556-.086-4.691-.151-8.326 6.825-8.666v-.421a.362.362 0 0 1 .283-.367 3.58 3.58 0 0 1 .816-.092c.271 0 .548.027.831.084.18.023.318.175.318.36v.439c6.944.346 6.878 3.981 6.792 8.663-.008.469-.017.954-.017 1.556 0 .04-.001.12-.004.236l-.004.178c.003.024.006.045.006.068v.053c0 1.151-.231 2.318-.635 3.426a11.805 11.805 0 0 1-1.779 3.204c-.192.243-.388.473-.596.694.019.216.037.47.056.752.062.945.149 2.208.273 2.734l1.228.757c2.391.501 4.494 1.309 5.96 2.414 1.381 1.042 2.209 2.35 2.209 3.919h-.002v4.901c0 .6-.245 1.143-.637 1.535l-.001.002a2.168 2.168 0 0 1-1.534.638h-1.61zm-1.058-11.649v.457c-.007 4.49-.009 5.901 1.312 10.467h1.356c.397 0 .761-.162 1.022-.424.264-.262.428-.626.428-1.026v-4.901h-.002c0-1.318-.719-2.436-1.92-3.341-.616-.466-1.358-.878-2.196-1.232zm-2.317-.781c.557.149 1.091.314 1.596.498v.74c-.007 4.504-.01 5.963 1.282 10.467H26.28c1.297-4.507 1.297-5.967 1.293-10.472v-.72a18.637 18.637 0 0 1 1.599-.493l-.005 7.238c0 .2.163.363.362.363l14.206.004c.199 0 .363-.16.363-.359l.002-7.266zm-14.207-.158l.244-.053c.545.901 1.426 1.591 2.44 2.082 1.274.613 2.765.913 4.053.915 1.352 0 2.707-.357 3.855-.913 1.138-.551 2.083-1.304 2.639-2.108.084.019.17.037.254.057l-.003 7.082-13.485-.006.003-7.056zm11.667-.917c-1.661 1.07-3.125 1.784-4.683 1.877-1.572.094-3.202-.448-5.163-1.9l-.908.594c.47.732 1.22 1.306 2.086 1.723 1.173.568 2.55.844 3.738.845 1.237 0 2.481-.329 3.54-.842.974-.471 1.783-1.095 2.276-1.752l-.886-.545zm-4.516-22.249v-.11a3.439 3.439 0 0 0-.423-.028c-.127 0-.254.01-.376.024v.112l.272-.001h.011l.007-.002H36.744l.006.002h.042c.085 0 .169 0 .252.003z"/>
    </g>
</svg>
