<svg xmlns="http://www.w3.org/2000/svg" xmlns:xlink="http://www.w3.org/1999/xlink" width="73" height="73" viewBox="0 0 73 73">
    <defs>
        <path id="a" d="M36.5 0H0v73h73V0z"/>
        <path id="c" d="M0 73h73V0H0z"/>
    </defs>
    <g fill="none" fill-rule="evenodd">
        <mask id="b" fill="#fff">
            <use xlink:href="#a"/>
        </mask>
        <path fill="#651FFF" d="M36.5 0C16.342 0 0 16.342 0 36.5S16.342 73 36.5 73 73 56.658 73 36.5 56.658 0 36.5 0m0 .75c19.713 0 35.75 16.037 35.75 35.75S56.213 72.25 36.5 72.25C16.788 72.25.75 56.213.75 36.5S16.788.75 36.5.75" mask="url(#b)"/>
        <mask id="d" fill="#fff">
            <use xlink:href="#c"/>
        </mask>
        <path fill="#651FFF" d="M30.064 51.101h12.871v-.983H30.064v.983zm6.434-12.463a5.476 5.476 0 0 1-5.469-5.472 5.476 5.476 0 0 1 5.469-5.471 5.478 5.478 0 0 1 5.472 5.471 5.478 5.478 0 0 1-5.472 5.472zm6.433-5.963l-.009-.113a6.413 6.413 0 0 0-.563-2.08l-.048-.103 1.56-.902-.492-.85-1.559.9-.065-.092a6.532 6.532 0 0 0-1.525-1.525l-.092-.065.9-1.559-.851-.492-.901 1.56-.104-.048a6.408 6.408 0 0 0-2.079-.563l-.113-.01v-1.795h-.983v1.795l-.113.01a6.412 6.412 0 0 0-2.081.563l-.103.048-.901-1.559-.85.49.9 1.561-.092.065a6.49 6.49 0 0 0-1.524 1.525l-.066.092-1.558-.901-.492.851 1.559.901-.048.102a6.38 6.38 0 0 0-.561 2.081l-.011.113H28.27v.982h1.796l.011.114a6.4 6.4 0 0 0 .562 2.081l.047.102-1.559.901.492.851 1.559-.901.066.092a6.477 6.477 0 0 0 1.522 1.524l.093.065-.9 1.561.85.491.901-1.559.103.048a6.453 6.453 0 0 0 2.081.563l.113.01v1.795h.983V39.6l.113-.01a6.408 6.408 0 0 0 2.079-.563l.104-.048.901 1.559.851-.491-.9-1.56.092-.065a6.471 6.471 0 0 0 1.524-1.525l.065-.092 1.56.9.492-.85-1.56-.901.048-.103a6.413 6.413 0 0 0 .563-2.08l.009-.114h1.795v-.982h-1.795zm7.711.982h1.88v-.982h-1.88v.982zm-14.144 1.227a1.72 1.72 0 0 1-1.716-1.718c0-.946.77-1.717 1.716-1.717a1.72 1.72 0 0 1 1.717 1.717 1.72 1.72 0 0 1-1.717 1.718zm0-4.417a2.702 2.702 0 0 0-2.699 2.699c0 1.489 1.211 2.7 2.699 2.7a2.703 2.703 0 0 0 2.699-2.7 2.702 2.702 0 0 0-2.699-2.699zM23.25 42.187l.577.794 1.521-1.103-.577-.795-1.521 1.104zm-2.139-4.537l.303.936 1.788-.581-.303-.936-1.788.581zm21.086 5.385l-.245.143v4.562H31.046v-4.562l-.245-.143a11.436 11.436 0 0 1-5.699-9.868c0-6.284 5.113-11.397 11.397-11.397s11.397 5.113 11.397 11.397c0 4.053-2.183 7.834-5.699 9.868zm-5.698-22.248c-6.826 0-12.38 5.554-12.38 12.38 0 4.257 2.255 8.294 5.886 10.536l.059.037v4.983h12.87V43.74l.06-.037c3.63-2.242 5.885-6.279 5.885-10.536 0-6.826-5.554-12.38-12.38-12.38zm-14.141 11.89l-1.88-.001v.982l1.88.001v-.982zm.844-4.347l-1.788-.582-.304.936 1.788.581.304-.935zm2.145-3.873l-1.52-1.104-.578.793 1.521 1.106.577-.795zm3.238-3.02l-1.105-1.521-.795.577 1.105 1.522.795-.578zm4.012-1.872l-.581-1.788-.934.304.58 1.788.935-.304zm-2.533 33.913h12.871v-.982H30.064v.982zm17.589-11.602l1.522 1.104.577-.794-1.522-1.105-.577.795zM33.987 55.855h5.024v-.982h-5.024v.982zM49.75 24.146l-.576-.794-1.522 1.104.577.795 1.521-1.105zm-3.435-3.654l-.795-.577-1.105 1.522.795.577 1.105-1.522zm3.483 17.511l1.789.581.303-.935-1.788-.581-.304.935zM36.009 19.025h.982v-1.88h-.982v1.88zm15.881 9.657l-.304-.935-1.788.581.303.936 1.789-.582zM41.919 18.08l-.935-.304-.582 1.789.935.304.582-1.789z" mask="url(#d)"/>
    </g>
</svg>
