<svg xmlns="http://www.w3.org/2000/svg" xmlns:xlink="http://www.w3.org/1999/xlink" width="73" height="73" viewBox="0 0 73 73">
    <defs>
        <path id="a" d="M0 0v73h73V0z"/>
    </defs>
    <g fill="none" fill-rule="evenodd">
        <g>
            <mask id="b" fill="#fff">
                <use xlink:href="#a"/>
            </mask>
            <path fill="#651FFF" d="M36.5 0C16.342 0 0 16.342 0 36.5S16.342 73 36.5 73 73 56.658 73 36.5 56.658 0 36.5 0m0 .75c19.713 0 35.75 16.037 35.75 35.75 0 19.712-16.037 35.75-35.75 35.75S.75 56.212.75 36.5C.75 16.787 16.787.75 36.5.75" mask="url(#b)"/>
        </g>
        <path fill="#651FFF" d="M38.197 53.81a2.402 2.402 0 0 1-4.097-1.697c0-1.324 1.076-2.4 2.4-2.4a2.404 2.404 0 0 1 2.4 2.4c0 .64-.25 1.244-.703 1.697zM36.5 48.73a3.387 3.387 0 0 0-3.384 3.383 3.388 3.388 0 0 0 3.383 3.384c.905 0 1.754-.352 2.392-.992.64-.64.992-1.49.992-2.392A3.388 3.388 0 0 0 36.5 48.73zm16.105-12.231a21.067 21.067 0 0 0-.01-.563l-.983.042a15.088 15.088 0 0 1 .001 1.04l.982.043c.007-.187.01-.374.01-.562zM36.008 47.507h.984v-3.04h-.984v3.04zm9.764.94l.596.783c.291-.225.581-.466.865-.718l-.66-.73c-.258.23-.526.453-.8.665zm6.687-14.128a16.748 16.748 0 0 0-.19-1.11l-.962.209c.072.346.13.69.176 1.026l.976-.125zm-25.232-9.766l-.595-.783c-.294.227-.584.468-.866.718l.66.729c.258-.23.527-.452.801-.664zM52.46 38.678l-.976-.124a14.63 14.63 0 0 1-.175 1.025l.961.208c.075-.363.14-.734.19-1.11zm-26.69 9.836c.277.245.567.485.865.717l.596-.782a15.246 15.246 0 0 1-.8-.664l-.66.729zm21.936-20.44a2.398 2.398 0 0 1 2.313-1.781 2.407 2.407 0 0 1 2.322 3.022 2.383 2.383 0 0 1-1.12 1.457 2.39 2.39 0 0 1-1.197.322 2.41 2.41 0 0 1-2.08-1.2 2.383 2.383 0 0 1-.238-1.82zm-.613 2.312a3.394 3.394 0 0 0 2.931 1.692 3.38 3.38 0 0 0 1.69-.455 3.36 3.36 0 0 0 1.576-2.053 3.361 3.361 0 0 0-.338-2.568 3.396 3.396 0 0 0-2.933-1.692 3.387 3.387 0 0 0-2.926 5.076zM36.5 18.488a2.401 2.401 0 0 1 2.4 2.399c0 1.323-1.077 2.4-2.4 2.4a2.403 2.403 0 0 1-2.4-2.4 2.402 2.402 0 0 1 2.4-2.4zm0 5.782a3.387 3.387 0 0 0 3.383-3.383 3.387 3.387 0 0 0-3.383-3.383 3.387 3.387 0 0 0-3.383 3.383A3.387 3.387 0 0 0 36.5 24.27zm-.49 4.263h.982v-3.04h-.983v3.04zm10.268 2.889l-.49-.851-2.634 1.519.492.852 2.632-1.52zm.953-6.935a15.92 15.92 0 0 0-.865-.72l-.596.784c.276.213.544.436.801.664l.66-.728zm-.953 17.092l-2.632-1.521-.492.852 2.633 1.519.491-.85zm-17.784 7.749l-.527.83a15.372 15.372 0 0 0 .974.562l.455-.872a15.777 15.777 0 0 1-.902-.52zm1.916 2.084c.343.14.696.27 1.054.389l.3-.937c-.323-.107-.65-.228-.974-.36l-.38.908zm1.352-29.276l-.3-.936c-.359.118-.712.249-1.055.39l.38.908c.322-.133.65-.254.975-.362zm12.3 27.459c-.152.086-.303.17-.455.252l.455.872a17.483 17.483 0 0 0 .973-.562l-.527-.83c-.147.09-.296.18-.447.268zm-2.824 1.268l.301.937c.35-.116.704-.247 1.054-.39l-.38-.908c-.324.133-.65.253-.975.36zm1.353-29.275c-.345-.141-.7-.272-1.055-.39l-.3.937c.33.11.657.23.974.362l.381-.91zM28.94 23.405c.15-.086.302-.171.454-.252l-.455-.872a15.939 15.939 0 0 0-.973.562l.527.83c.146-.092.296-.18.447-.268zm15.566.267l.528-.831a16.158 16.158 0 0 0-.974-.561l-.455.87a15.556 15.556 0 0 1 .901.522zM52.1 45.507a2.4 2.4 0 1 1-4.157-2.4 2.412 2.412 0 0 1 2.081-1.2 2.4 2.4 0 0 1 2.076 3.6zm-.386-4.13a3.398 3.398 0 0 0-1.69-.454 3.395 3.395 0 0 0-2.932 1.693 3.387 3.387 0 0 0 2.927 5.075c1.206 0 2.33-.65 2.933-1.693a3.369 3.369 0 0 0 .338-2.567 3.36 3.36 0 0 0-1.576-2.054zm-26.418 3.55a2.385 2.385 0 0 1-1.117 1.457 2.39 2.39 0 0 1-1.197.322 2.408 2.408 0 0 1-2.08-1.2 2.404 2.404 0 0 1 .878-3.278 2.4 2.4 0 0 1 3.277.879c.32.554.405 1.2.24 1.82zm.613-2.312a3.398 3.398 0 0 0-2.933-1.692c-.59 0-1.174.157-1.688.453a3.388 3.388 0 0 0-1.238 4.622 3.38 3.38 0 0 0 4.621 1.238 3.386 3.386 0 0 0 1.238-4.621zM36.5 36.978a1.604 1.604 0 0 1-1.602-1.602c0-.882.72-1.601 1.602-1.601.883 0 1.601.719 1.601 1.6 0 .884-.718 1.603-1.6 1.603zm0-4.187a2.588 2.588 0 0 0-2.585 2.585 2.588 2.588 0 0 0 2.585 2.586 2.588 2.588 0 0 0 2.585-2.586A2.588 2.588 0 0 0 36.5 32.79zm-15.6-5.297a2.41 2.41 0 0 1 2.081-1.201 2.402 2.402 0 0 1 2.075 3.6 2.402 2.402 0 0 1-4.395-.579 2.383 2.383 0 0 1 .24-1.82zm.388 4.129a3.375 3.375 0 0 0 4.62-1.238 3.387 3.387 0 0 0-1.237-4.622 3.386 3.386 0 0 0-1.69-.453 3.39 3.39 0 0 0-2.93 1.692 3.352 3.352 0 0 0-.34 2.567 3.361 3.361 0 0 0 1.577 2.054zm19.04 9.267l-.068-.17a2.491 2.491 0 0 0-2.326-1.588h-2.868c-.669 0-1.297.26-1.768.733a2.46 2.46 0 0 0-.558.855l-.066.17-.135-.124A5.844 5.844 0 0 1 30.67 36.5a5.838 5.838 0 0 1 5.83-5.831 5.839 5.839 0 0 1 5.831 5.83 5.847 5.847 0 0 1-1.869 4.267l-.134.124zm-.97.687a5.815 5.815 0 0 1-2.858.754 5.818 5.818 0 0 1-2.857-.754l-.072-.041.01-.082c.043-.36.186-.668.413-.894a1.507 1.507 0 0 1 1.072-.444h2.868c.405 0 .785.158 1.074.445.224.224.367.532.412.892l.01.083-.073.04zm3.956-5.077a6.821 6.821 0 0 0-6.814-6.814 6.822 6.822 0 0 0-6.815 6.814 6.822 6.822 0 0 0 6.815 6.814 6.821 6.821 0 0 0 6.814-6.814zm-22.919 0c.001.19.004.377.01.564l.982-.042a18.062 18.062 0 0 1 0-1.041l-.982-.042c-.007.186-.01.374-.01.56zm6.326 5.079l.492.85 2.632-1.52-.492-.851-2.632 1.52zm-5.03-8.16l-.96-.206c-.077.369-.14.742-.19 1.109l.976.124c.046-.344.105-.688.174-1.026zm.001 6.163a15.316 15.316 0 0 1-.175-1.025l-.975.124c.05.366.112.737.19 1.108l.96-.207zm5.03-8.16l2.631 1.52.492-.852-2.632-1.52-.492.852z"/>
    </g>
</svg>
