<svg xmlns="http://www.w3.org/2000/svg" xmlns:xlink="http://www.w3.org/1999/xlink" width="73" height="73" viewBox="0 0 73 73">
    <defs>
        <path id="a" d="M0 73h73V0H0z"/>
    </defs>
    <g fill="none" fill-rule="evenodd">
        <path fill="#651FFF" d="M36.5 0C16.342 0 0 16.341 0 36.5 0 56.658 16.342 73 36.5 73S73 56.658 73 36.5C73 16.341 56.658 0 36.5 0m0 .75c19.713 0 35.75 16.037 35.75 35.75 0 19.712-16.037 35.75-35.75 35.75S.75 56.212.75 36.5C.75 16.787 16.787.75 36.5.75"/>
        <mask id="b" fill="#fff">
            <use xlink:href="#a"/>
        </mask>
        <path fill="#651FFF" d="M40.853 42.482h5.228v-.983h-5.228v.983zm0-5.479h5.228v-.982h-5.228v.982zm0 8.217h10.705v-.982H40.853v.982zm0-5.477h10.705v-.982H40.853v.982zm-15.379-2.564h.982V36.06h-.982v1.119zm0-2.738h.982v-1.119h-.982v1.119zm15.379 13.518h5.228v-.982h-5.228v.982zm0-13.694h10.705v-.982H40.853v.982zM25.965 19.496a3.125 3.125 0 0 1 3.121 3.122c0 1.72-1.4 3.121-3.121 3.121a3.125 3.125 0 0 1-3.121-3.121c0-1.721 1.4-3.122 3.121-3.122zm0 7.225a4.108 4.108 0 0 0 4.103-4.103 4.108 4.108 0 0 0-4.103-4.104 4.109 4.109 0 0 0-4.104 4.104 4.108 4.108 0 0 0 4.104 4.103zm14.888 23.977h10.705v-.982H40.853v.982zm-7.43-18.018a4.331 4.331 0 0 0-1.278-3.084 4.333 4.333 0 0 0-3.083-1.277h-.835l-2.262 2.261-2.261-2.261h-.836a4.335 4.335 0 0 0-3.084 1.277 4.338 4.338 0 0 0-1.277 3.084v9.522h3.097v12.284h.982V39.772h-.982v1.447H19.49V32.68c0-.903.352-1.752.989-2.39a3.365 3.365 0 0 1 2.389-.989h.429l2.668 2.669 2.669-2.669h.428c.901 0 1.75.352 2.388.989.638.638.99 1.487.99 2.39v8.539h-2.114v-1.447h-.982v14.714h.982V42.202h3.097V32.68zm3.508-3.981l2.414-2.414-.695-.696-1.719 1.72-.974-.975-.694.696 1.668 1.669zm3.922 2.827h5.228v-.982h-5.228v.982zm-4.427 12.712h1.756v-1.756h-1.756v1.756zm-.983.982h3.721v-3.722h-3.721v3.722zm1.488-11.044l2.414-2.414-.695-.694-1.719 1.718-.974-.973-.694.694 1.668 1.669zm-.505 15.539h1.756v-1.756h-1.756v1.756zm-.983.983h3.721v-3.721h-3.721v3.721zm1.488-11.044l2.414-2.413-.695-.696-1.719 1.719-.974-.974-.694.695 1.668 1.669zM25.474 54.486h.982V43.9h-.982v10.586zm15.379-25.7h10.705v-.982H40.853v.982zm-2.738-5.477h1.118v-.982h-1.118v.982zm11.203.387V20.2l3.497 3.496h-3.497zm-.288-5.174H33.056v.983h15.28v5.173h5.174v28.757H33.056v.982h21.436V23.985l-5.462-5.463zm-8.177 7.526h5.228v-.982h-5.228v.982zm-5.479-2.739h1.12v-.982h-1.12v.982zm5.479 0h1.119v-.982h-1.119v.982z" mask="url(#b)"/>
    </g>
</svg>
