<svg xmlns="http://www.w3.org/2000/svg" xmlns:xlink="http://www.w3.org/1999/xlink" width="73" height="73" viewBox="0 0 73 73">
    <defs>
        <path id="a" d="M36.5 0H73v73H0V0z"/>
        <path id="c" d="M0 73h73V0H0z"/>
    </defs>
    <g fill="none" fill-rule="evenodd">
        <mask id="b" fill="#fff">
            <use xlink:href="#a"/>
        </mask>
        <path fill="#651FFF" d="M36.5 0C16.342 0 0 16.342 0 36.5S16.342 73 36.5 73 73 56.658 73 36.5 56.658 0 36.5 0m0 .75c19.713 0 35.75 16.037 35.75 35.75S56.213 72.25 36.5 72.25.75 56.213.75 36.5 16.787.75 36.5.75" mask="url(#b)"/>
        <mask id="d" fill="#fff">
            <use xlink:href="#c"/>
        </mask>
        <path fill="#651FFF" d="M54.638 35.864h1.09v-.983h-1.09v.983zM25.141 23.101a2.634 2.634 0 0 1 2.632-2.632h18.284c1.45 0 2.63 1.18 2.63 2.632v7.555h.983v-7.555a3.619 3.619 0 0 0-3.613-3.616H27.773a3.62 3.62 0 0 0-3.616 3.616v7.555h.984v-7.555zm-7.04 15.44h1.089v-.983h-1.089v.983zm36.537 0h1.09v-.983h-1.09v.983zm-36.537-2.677h1.089v-.983h-1.089v.983zm18.321-13.188h.983v-.984h-.983v.984zm18.761 23.898c-.616 0-1.116-.5-1.116-1.115a1.116 1.116 0 0 1 2.23 0c0 .615-.5 1.115-1.114 1.115zm-27.344 1.964h18.15V24.884h-18.15v23.654zm-9.193-1.964c-.615 0-1.115-.5-1.115-1.115a1.116 1.116 0 1 1 1.115 1.115zm0-17.498c-.615 0-1.115-.5-1.115-1.114 0-.615.5-1.115 1.115-1.115a1.116 1.116 0 0 1 0 2.229zm36.537-2.229a1.116 1.116 0 1 1-1.116 1.115c0-.615.5-1.115 1.116-1.115zm0 16.514c-.345 0-.684.091-1.006.269l-.082.046-.068-.067-3.374-3.375h-3.68v-1.693h6.077v-.983h-6.077v-1.694h6.077v-.983h-6.077v-1.694h3.68l3.442-3.442.082.046c.324.179.662.27 1.006.27a2.101 2.101 0 0 0 2.098-2.099 2.101 2.101 0 0 0-2.098-2.099 2.101 2.101 0 0 0-2.099 2.099c0 .346.091.684.27 1.006l.045.082-.066.067-3.087 3.086h-3.273V23.9H26.855v8.303h-3.273l-.037-.036-3.116-3.117.046-.082c.178-.324.269-.662.269-1.006a2.101 2.101 0 0 0-2.098-2.099 2.101 2.101 0 0 0-2.098 2.099c0 1.157.941 2.099 2.098 2.099.343 0 .681-.091 1.005-.27l.082-.046.068.067 3.374 3.375h3.68v1.694h-6.077v.983h6.077v1.694h-6.077v.983h6.077v1.693h-3.68l-3.442 3.442-.082-.046a2.064 2.064 0 0 0-1.005-.269 2.1 2.1 0 0 0-2.098 2.098c0 1.157.941 2.099 2.098 2.099a2.101 2.101 0 0 0 2.098-2.099c0-.344-.091-.682-.269-1.005l-.046-.082 3.153-3.154h3.273v8.303h20.118v-8.303h3.273l.037.036 3.116 3.117-.045.082c-.179.324-.27.662-.27 1.006 0 1.157.941 2.099 2.099 2.099a2.101 2.101 0 0 0 2.098-2.099 2.1 2.1 0 0 0-2.098-2.098zm-18.269-12.6a5.957 5.957 0 0 1 5.95 5.95c0 1.92-.941 3.734-2.518 4.852l-.149.106-.045-.176a3.327 3.327 0 0 0-.866-1.544 3.33 3.33 0 0 0-2.372-.983 3.328 3.328 0 0 0-3.239 2.527l-.045.176-.148-.106a5.962 5.962 0 0 1-2.518-4.852 5.957 5.957 0 0 1 5.95-5.95zm2.272 11.447a5.88 5.88 0 0 1-2.272.453 5.883 5.883 0 0 1-2.272-.453l-.086-.035.009-.093c.057-.557.29-1.054.672-1.436a2.356 2.356 0 0 1 1.677-.694c.634 0 1.23.247 1.678.695.382.382.614.879.67 1.435l.01.093-.086.035zm-2.272 1.438a6.943 6.943 0 0 0 6.935-6.935c0-3.823-3.111-6.934-6.935-6.934a6.942 6.942 0 0 0-6.934 6.934 6.942 6.942 0 0 0 6.934 6.935zm-.001-10.022c.913 0 1.656.742 1.656 1.655s-.743 1.656-1.656 1.656a1.656 1.656 0 0 1 0-3.311zm0 4.295a2.644 2.644 0 0 0 2.64-2.64 2.643 2.643 0 0 0-2.64-2.639 2.642 2.642 0 0 0-2.639 2.639 2.643 2.643 0 0 0 2.639 2.64zm-2.416 13.81h4.833v-.983h-4.833v.983zm14.19-1.404a2.632 2.632 0 0 1-2.63 2.628H27.773a2.633 2.633 0 0 1-2.632-2.628v-7.554h-.984v7.554a3.618 3.618 0 0 0 3.616 3.612h18.284a3.617 3.617 0 0 0 3.613-3.612v-7.554h-.983v7.554z" mask="url(#d)"/>
    </g>
</svg>
