<svg xmlns="http://www.w3.org/2000/svg" xmlns:xlink="http://www.w3.org/1999/xlink" width="73" height="73" viewBox="0 0 73 73">
    <defs>
        <path id="a" d="M0 36.5V73h73V0H0z"/>
        <path id="c" d="M0 73h73V0H0z"/>
    </defs>
    <g fill="none" fill-rule="evenodd">
        <mask id="b" fill="#fff">
            <use xlink:href="#a"/>
        </mask>
        <path fill="#651FFF" d="M36.5 0C16.342 0 0 16.342 0 36.5S16.342 73 36.5 73 73 56.658 73 36.5 56.658 0 36.5 0m0 .75c19.713 0 35.75 16.037 35.75 35.75S56.213 72.25 36.5 72.25.75 56.213.75 36.5 16.787.75 36.5.75" mask="url(#b)"/>
        <mask id="d" fill="#fff">
            <use xlink:href="#c"/>
        </mask>
        <path fill="#651FFF" d="M17.001 48.1h7.023v-.982h-7.023v.982zM17 45.753h3.255v-.983H17v.983zm3.505 4.694h3.519v-.982h-3.519v.982zm0 2.348h3.519v-.983h-3.519v.983zm0-21.128h3.519v-.983h-3.519v.983zm-3.504-2.349h7.023v-.982h-7.023v.982zm3.504 14.086h3.519v-.982h-3.519v.982zm0-2.346h3.519v-.982h-3.519v.982zm-3.504-2.35h7.023v-.982h-7.023v.982zm3.504-4.694h3.519v-.982h-3.519v.982zM17 36.362h3.255v-.982H17v.982zm20.608-7.3h1.709a.827.827 0 0 1 .586 1.415.82.82 0 0 1-.586.243h-1.709v-1.658zm2.99 2.11c.342-.343.53-.798.53-1.281 0-.484-.188-.939-.531-1.281a1.796 1.796 0 0 0-1.28-.531h-2.2a.492.492 0 0 0-.491.492v5.772h.982v-2.641h1.709a1.8 1.8 0 0 0 1.281-.53zm6.352 16.406a2.678 2.678 0 0 1-2.676-2.676 2.68 2.68 0 0 1 2.676-2.676 2.68 2.68 0 0 1 2.675 2.676 2.679 2.679 0 0 1-2.675 2.676zm0-6.335a3.662 3.662 0 0 0-3.658 3.659 3.662 3.662 0 0 0 3.658 3.659 3.662 3.662 0 0 0 3.657-3.659 3.663 3.663 0 0 0-3.657-3.659zM25.749 52.795h7.024v-.982h-7.024v.982zm0-2.347h3.52v-.983h-3.52v.983zm5.874-19.728v-.829a.826.826 0 0 1 .829-.829h.88a.83.83 0 0 1 .829.829v.829h-2.538zm3.52 3.623v-4.452c0-.484-.188-.939-.531-1.281a1.796 1.796 0 0 0-1.28-.531h-.88a1.8 1.8 0 0 0-1.281.53 1.804 1.804 0 0 0-.531 1.282v4.452h.983v-2.641h2.538v2.641h.982zm17.723 11.849l-.064.245a6.02 6.02 0 0 1-.631 1.516l-.127.218.815 1.82-.819.821-1.82-.815-.218.127a6.179 6.179 0 0 1-1.518.63l-.244.064-.711 1.862h-1.16l-.032-.08-.676-1.782-.245-.064a6.064 6.064 0 0 1-1.517-.63l-.219-.127-1.819.815-.82-.821.815-1.82-.128-.219a6.06 6.06 0 0 1-.631-1.516l-.064-.244-1.862-.71v-1.159l1.862-.71.064-.244a6.04 6.04 0 0 1 .632-1.518l.127-.219-.815-1.819.82-.821 1.819.816.219-.128a6.12 6.12 0 0 1 1.517-.63l.245-.065.708-1.861h1.16l.031.08.679 1.782.243.064c.531.14 1.043.352 1.52.631l.218.127 1.82-.816.819.821-.815 1.819.126.218c.282.479.494.99.632 1.518l.064.244 1.863.711-.001 1.159-1.862.71zm.8.798l.017-.057.057-.023 1.97-.751.001-2.513-2.028-.774-.017-.057a7.02 7.02 0 0 0-.493-1.183l-.028-.054.024-.055.863-1.925-1.776-1.78-1.981.889-.055-.028c-.382-.2-.78-.365-1.183-.491l-.058-.018-.022-.057-.751-1.971h-2.514l-.773 2.028-.057.018a7.124 7.124 0 0 0-1.182.49l-.053.028-.056-.024-1.926-.864-1.777 1.779.886 1.98-.028.054a7.11 7.11 0 0 0-.491 1.185l-.018.057-.056.023-1.972.75v2.513l2.028.774.018.057c.127.407.292.804.491 1.182l.028.054-.024.055-.862 1.927 1.777 1.776 1.982-.886.053.028c.376.198.774.363 1.182.49l.057.018.023.057.75 1.971h2.514l.774-2.028.058-.018c.4-.125.798-.29 1.183-.49l.054-.028 1.981.886 1.776-1.776-.887-1.982.028-.054a7.03 7.03 0 0 0 .493-1.182zM33.628 22.173h.983v-.982h-.983v.982zm-6.96 1.208h22.298v-3.398H26.668v3.398zm0 .982h22.297v10.998h.983V19H25.685v29.1h11.23v-.983H26.668V24.363zm2.031-2.19h.982v-.982h-.982v.982zm2.465 0h.982v-.982h-.982v.982zm13.83 6.889v-.983h-2.391v.983h.703v4.298h-.703v.983h2.391v-.983h-.704v-4.298h.704z" mask="url(#d)"/>
    </g>
</svg>
