<svg xmlns="http://www.w3.org/2000/svg" xmlns:xlink="http://www.w3.org/1999/xlink" width="73" height="73" viewBox="0 0 73 73">
    <defs>
        <path id="a" d="M36.5 0H73v73H0V0z"/>
    </defs>
    <g fill="none" fill-rule="evenodd">
        <g>
            <mask id="b" fill="#fff">
                <use xlink:href="#a"/>
            </mask>
            <path fill="#651FFF" d="M36.5 0C16.341 0 0 16.342 0 36.5S16.341 73 36.5 73C56.658 73 73 56.658 73 36.5S56.658 0 36.5 0m0 .75c19.712 0 35.75 16.037 35.75 35.75S56.212 72.25 36.5 72.25C16.787 72.25.75 56.213.75 36.5S16.787.75 36.5.75" mask="url(#b)"/>
        </g>
        <path fill="#651FFF" d="M48.123 53.267h-24.14V19.984h18.551v5.588h5.589v27.695zm-4.605-32.588l3.909 3.909h-3.909v-3.909zM43.229 19H23v35.25h26.106V24.876L43.229 19zm-7.176 25.631c-4.414 0-8.006-3.592-8.006-8.006s3.592-8.005 8.006-8.005c4.415 0 8.007 3.591 8.007 8.005 0 4.414-3.592 8.006-8.007 8.006zm0-16.996c-4.957 0-8.99 4.033-8.99 8.99s4.033 8.991 8.99 8.991 8.99-4.034 8.99-8.991-4.033-8.99-8.99-8.99zm2.181-2.064h1.121v-.983h-1.121v.983zm-2.741 23.092h1.12v-.984h-1.12v.984zm-.725-7.586l.968.171 1.603-9.074-.97-.172-1.601 9.075zm-2.017-15.506h1.121v-.983h-1.121v.983zm0 23.092h1.121v-.984h-1.121v.984zm5.483 0h1.121v-.984h-1.121v.984zm.218-14.342l2.305 2.304-.088.089-2.217 2.216.695.696 3-3.001-3-3-.695.696zm-4.797-.001l-.696-.696-3.001 3.001 3.001 3.001.696-.696-2.305-2.305.087-.088 2.218-2.217zm1.838-8.749h1.12v-.983h-1.12v.983z"/>
    </g>
</svg>
